<?xml version="1.0" standalone="no"?>
<!DOCTYPE svg PUBLIC "-//W3C//DTD SVG 1.1//EN" "http://www.w3.org/Graphics/SVG/1.1/DTD/svg11.dtd" >
<!--
2013-9-30: Created.
-->
<svg>
<metadata>
Created by iconfont
</metadata>
<defs>

<font id="iconfont" horiz-adv-x="1024" >
  <font-face
    font-family="iconfont"
    font-weight="500"
    font-stretch="normal"
    units-per-em="1024"
    ascent="896"
    descent="-128"
  />
    <missing-glyph />
    
    <glyph glyph-name="qq2" unicode="&#58908;" d="M1042.199273-3.522909c0-65.908364-52.875636-119.342545-117.899636-119.342545L329.960727-122.865455c-65.070545 0-117.899636 53.434182-117.899636 119.342545L212.061091 598.496c0 65.954909 52.829091 119.389091 117.899636 119.389091l594.338909 0c65.024 0 117.899636-53.434182 117.899636-119.389091L1042.199273-3.522909zM897.489455 229.204364c-14.242909 41.797818-37.748364 87.645091-41.378909 108.776727 0.046545 1.722182 0.512 3.444364 0.512 5.12 0 139.403636-83.642182 252.416-230.632727 252.369455-0.186182 0-0.372364 0-0.605091 0s-0.372364 0-0.605091 0C477.928727 595.517091 394.24 482.504727 394.24 343.101091c0-1.768727 0.465455-3.490909 0.512-5.259636-3.723636-21.131636-27.136-66.932364-41.285818-108.637091C347.461818 211.563636 339.781818 179.493818 339.269818 165.530182 337.92 134.437818 370.129455 127.781818 404.712727 168.555636c14.754909-30.533818 30.580364-63.441455 30.580364-63.441455-73.122909-30.114909-35.141818-86.760727 22.946909-99.421091 57.669818-12.567273 106.914909-8.238545 167.191273 12.381091 60.322909-20.573091 109.521455-24.901818 167.191273-12.381091 58.088727 12.613818 96.023273 69.259636 23.086545 99.421091 0 0 15.732364 32.907636 30.440727 63.441455 34.676364-40.820364 66.839273-34.071273 65.396364-2.978909C911.127273 179.493818 903.400727 211.563636 897.489455 229.204364z"  horiz-adv-x="1257" />

    
    <glyph glyph-name="qq" unicode="&#58978;" d="M189.337741 347.458895l-1.720178 5.311982-1.390673 6.931876-0.960885 3.820002 0 4.756327 0 5.717212 0 5.161556 1.669012 6.122441 1.695618 6.526647 2.200108 6.80601 3.010567 7.589862 3.946892 7.893784 5.591345 7.919367 0 5.565762 0.532119 5.160533 0.833995 7.083326 2.403746 7.868201 2.202155 8.576329 1.744737 3.946892 2.050706 3.668553 2.604314 4.072759 2.834558 3.010567 0 5.564739 0 6.274914 0 7.742335 1.64343 10.093892 1.644453 11.688203 2.960425 13.990642 4.072759 14.572904 3.010567 8.019651 3.01159 8.702196 3.2623 8.146541 3.921309 8.728802 3.998057 9.511631 4.604878 8.982582 5.161556 9.512654 6.526647 9.537214 3.010567 5.438872 3.213181 4.477988 6.982018 10.069333 7.160073 10.069333 8.197706 10.347672 8.726755 10.069333 9.512654 9.917884 9.892301 10.220782 11.992125 11.004635 7.615445 6.67912 9.259898 7.184633 9.385764 6.40078 10.1952 6.121418 9.766434 5.439896 11.031241 4.477988 11.688203 5.591345 11.639085 3.794419 11.611455 3.945869 12.524245 3.946892 12.522198 2.986007 13.20679 2.453888 13.357216 2.175549 13.155624 1.77032 13.205766 1.796926 14.016225 0.783853 13.358239 0 13.83817 0 14.32117 0 13.81361-1.746784 13.913894-1.669012 14.167674-1.49198 13.131065-3.112897 13.914918-2.984984 13.028735-3.390213 14.295588-3.820002 13.054317-4.630461 12.549827-5.287423 13.331633-5.591345 12.220323-6.148024 11.840676-6.754844 11.584849-7.515161 10.04375-6.931876 4.604878-3.945869 4.909823-2.833535 9.283434-7.894807 7.844665-7.640004 7.764847-7.892761 7.642051-8.703219 6.248308-8.423857 7.439436-8.703219 5.236258-9.385764 5.262864-8.29799 5.616928-9.664104 4.602831-8.449439 7.843642-17.811668 3.846608-9.233292 3.010567-8.577353 2.982938-9.259898 2.684132-8.703219 1.921769-7.462972 2.403746-8.854669 4.27435-15.761985 2.734274-13.762445 1.747807-13.33368 1.51347-10.727319 2.405793-16.317641 0.557702-2.605338 1.920746-2.984984 5.15951-8.42488 3.292999-5.718235 2.957355-5.994528 3.798513-6.376221 3.287883-7.640004 2.152013-7.867178 2.324952-8.577353 1.797949-8.830109 0.835018-4.351098 0.679475-5.313006 0-4.629437-0.679475-4.630461 0-5.717212-1.39272-5.565762-2.481518-10.751878-2.805906-5.439896-2.074242-6.121418 0-1.49198 0.960885-1.898233 2.835581-4.502547 12.242835-18.088984 9.688663-13.586436 4.63353-9.131985 6.246261-9.91686 5.438872-10.878768 6.248308-11.69025 6.275937-13.078877 7.059789-14.824637 3.944845-9.108448 3.641947-8.830109 3.165086-9.410324 3.110851-8.423857 2.328022-8.830109 2.427282-8.324596 3.01159-16.191774 2.402723-16.570397 1.671059-14.69877 0-7.994068 0-6.554276 0-6.120394-1.11438-7.362688-1.592264-12.649088-2.201132-11.410887-3.363607-10.32209-1.24127-4.224208-2.328022-5.034666-1.997494-3.543709-2.606361-4.352121-2.355651-2.732228-2.958378-3.539616-2.604314-2.860141-2.835581-2.428306-3.362584-1.494027-3.039219-1.49198-2.451842-0.808412-2.176572 0-1.620917 0-2.451842 0.808412-4.628414 2.302439-2.153036 1.490957-2.198062 1.620917-2.430352 2.200108-2.454912 2.429329-4.047176 4.501524-4.832052 6.376221-3.768837 6.553253-3.797489 5.287423-3.668553 6.120394-5.210675 10.879792-5.844102 11.30958-0.683569 0.405229-0.959861 0-2.40477-1.77032-1.393743-2.986007-2.248204-3.667529-4.001127-11.031241-5.992481-15.635095-7.692193-18.772552-5.792936-9.386788-6.097882-9.78997-7.184633-11.005658-7.642051-10.777461-3.919263-4.882194-4.756327-5.314029-10.878768-10.751878 0.936325-0.936325 1.493004-1.51654 5.437849-3.264347 22.693862-10.853186 9.917884-5.591345 9.434883-5.41329 9.364275-6.831592 8.322549-7.084349 4.047176-3.136433 3.036149-3.668553 3.086291-4.199649 2.632967-4.657067 1.364067-3.793396 1.722224-4.629437 0.683569-3.921309 0.832971-4.628414-0.832971-3.137457 0-3.087315-0.683569-3.314489-1.722224-2.961448-0.684592-2.325975-1.514493-2.833535-4.122901-5.616928-3.796466-4.502547-2.960425-3.364631-2.481518-2.480494-6.249331-4.603855-7.080256-3.972475-7.566326-3.820002-8.070816-3.64297-9.081843-3.518127-4.806469-1.49198-4.327562-1.239224-10.475586-2.453888-10.876722-2.301416-10.879792-2.326998-11.815093-1.898233-12.246929-0.531096-12.547781-1.494027-12.370749 0-13.078877 0-13.409404 0-14.041808 0.810459-13.078877 1.214664-14.041808 1.898233-13.966083 1.49198-14.724353 2.075265-14.243399 3.51608-13.889335 2.731204-13.840216 3.948939-14.167674 5.008061-13.913894 4.249791-7.287987 2.430352-6.525624 2.328022-4.123924 1.592264-4.071735 0.835018-5.288446 0-6.274914 0-13.358239 0.959861-6.780427 0.684592-8.704243 0.960885-5.564739-5.033643-7.640004-4.758374-10.32209-5.084808-11.410887-6.247284-6.958482-3.366677-7.235798-2.731204-16.013719-6.529717-8.703219-2.174526-9.131985-2.480494-12.650111-2.402723-7.918343-0.682545-8.400321-0.684592-8.727779-0.959861-10.1952-0.430812-9.766434 0-10.1952 0-21.630646 0-23.50432 0.430812-22.769586 2.325975-11.561313 1.594311-11.157107 1.644453-10.853186 1.64343-10.879792 2.174526-10.06831 3.26537-10.094916 2.301416-9.082866 3.693112-8.601912 3.366677-7.969509 3.845585-6.957459 4.199649-6.956436 5.034666-2.328022 2.479471-3.111874 2.960425-2.328022 2.606361-2.124384 2.960425-1.948375 3.010567-1.518586 2.983961-2.149966 6.401804-0.783853 3.264347-0.986467 3.666506 0 3.390213 0.986467 3.795443 0 3.817955 0.783853 3.821025 0 2.328022 0 5.287423 0.38067 4.099365 1.769296 4.628414 1.518586 4.603855 2.756787 5.591345 1.99954 2.152013 1.644453 2.452865 4.351098 5.313006 3.440355 2.732228 3.213181 1.898233 3.010567 2.428306 4.782933 1.51654 3.76986 2.276856 4.755304 2.479471 5.439896 1.620917 5.438872 1.642406 6.249331 1.342578 5.995551 0.833995 7.084349 0.935302 7.640004 0.557702 2.025123 0.683569 0.428765 0 0.961908 0.832971 0 0.937348-1.391696 1.896186-4.098341 1.924839-10.171664 8.829086-6.830569 5.437849-7.892761 6.932899-7.995091 7.742335-8.324596 9.942443-9.487072 11.156084-3.591805 5.996574-4.730745 6.246261-4.073782 7.237845-3.643993 7.867178-4.957919 7.488555-3.238764 8.55177-3.794419 8.577353-3.820002 9.537214-2.833535 9.081843-2.606361 11.310603-0.835018 0.403183-0.784876 0-0.404206 0.810459-0.98749 0-1.617847-0.810459-0.810459-0.403183-1.112334-1.898233-0.405229-2.325975-0.833995-2.049682-1.441838-3.365654-4.680603-8.323573-2.403746-5.03569-3.820002-4.350075-4.098341-5.287423-4.477988-5.869684-4.730745-5.161556-5.590322-5.033643-5.187139-4.758374-5.66707-3.691065-6.272867-3.948939-5.970992-2.300392-7.084349-1.769296-6.956436-0.660032-0.683569 0-0.960885 0-1.594311 0.660032-1.239224 2.756787-2.048659 1.312902-2.707668 6.553253-1.644453 3.543709-1.796926 5.034666-1.467421 5.287423-0.783853 5.186116-2.226714 11.81407-0.809435 6.957459 0 7.084349 0 15.760962 0.809435 17.002232 1.391696 8.704243 1.61887 8.978489 1.467421 9.640568 2.63092 8.980535 2.960425 10.374278 3.01159 10.04375 4.072759 10.346649 3.820002 9.915837 5.262864 10.07138 4.958942 10.878768 5.970992 10.1952 7.057743 11.029194 7.184633 9.943466 7.514137 10.981099 6.248308 7.640004 8.019651 8.830109 8.42488 8.853645 3.921309 4.200672 4.780887 4.780887 6.931876 5.995551 7.084349 6.096858 11.561313 10.348696 8.728802 6.375198L189.337741 347.458895zM189.337741 347.458895"  horiz-adv-x="1024" />

    
    <glyph glyph-name="mp-attention" unicode="&#58981;" d="M523.093-153.796c-4.070 0-10.138 2.022-14.234 4.045-18.253 8.115-473.037 239.565-473.037 586.726 0 154.291 125.875 280.166 280.166 280.166 79.181 0 154.291-34.509 207.078-91.366 52.813 58.88 127.923 91.366 207.078 91.366 154.291 0 280.166-125.875 280.166-280.166 0-347.162-454.758-578.611-473.037-586.726-4.045-2.022-10.138-4.045-14.182-4.045v0zM315.989 654.242c-119.782 0-217.242-97.459-217.242-217.242 0-276.122 349.21-483.2 424.32-523.802 75.136 40.627 424.294 247.706 424.294 523.802 0 119.782-97.434 217.242-217.216 217.242-73.062 0-140.083-36.531-180.685-97.459-12.186-18.278-40.627-18.278-52.787 0-40.602 60.902-107.571 97.459-180.685 97.459v0zM315.989 654.242z"  horiz-adv-x="1024" />

    
    <glyph glyph-name="qianjin" unicode="&#58910;" d="M658.092172 383.593561 252.895259-21.625932c-15.715634-15.738214-15.715634-41.230959 0-56.924013 15.715634-15.738214 41.208379-15.738214 56.946593 0l433.850849 433.850849c15.715634 15.715634 15.715634 41.208379 0 56.946593-1.083837 1.083837-2.235413 2.099934-3.40957 3.025711l-431.276736 431.321896c-15.738214 15.715634-41.230959 15.715634-56.969173 0-15.693054-15.738214-15.693054-41.230959 0-56.946593L658.092172 383.593561 658.092172 383.593561zM658.092172 383.593561"  horiz-adv-x="1024" />

    
    <glyph glyph-name="huiyuanqia" unicode="&#58979;" d="M78.297099 531.890075c0 0 648.945415 0 865.258155 0 13.02417 0 13.02417 10.064576 13.02417 10.064576l0 92.292626c0 24.83716-20.323221 45.159782-45.160181 45.159782L109.688215 679.407058c-24.836561 0-45.159782-20.322621-45.159782-45.159782 0 0 0-68.482369 0-86.064848C64.528434 531.890075 78.297099 531.890075 78.297099 531.890075zM937.771175 435.800823c-92.089363 0-657.500015 0-859.025381 0-14.217361 0-14.217361-11.290345-14.217361-11.290345l0-349.047346c0-24.842157 20.323221-45.160181 45.159782-45.160181l801.74082 0c24.832164 0 45.160381 20.318224 45.160381 45.160181L956.589416 417.390905C956.589416 417.390905 956.589416 435.800823 937.771175 435.800823zM201.527748 294.605953c0-8.799034-7.204116-16.013143-16.010545-16.013143L127.278889 278.59281c-8.811426 0-16.018539 7.214109-16.018539 16.013143L111.260349 350.388932c0 8.808028 7.207114 16.013143 16.018539 16.013143l58.238314 0c8.806429 0 16.010545-7.205115 16.010545-16.013143L201.527748 294.605953zM325.057795 294.605953c0-8.799034-7.209512-16.013143-16.016141-16.013143l-58.235916 0c-8.806429 0-16.015541 7.214109-16.015541 16.013143L234.790196 350.388932c0 8.808028 7.209112 16.013143 16.015541 16.013143l58.235916 0c8.806429 0 16.016141-7.205115 16.016141-16.013143L325.057795 294.605953zM560.791767 86.314775l-42.987654 0-61.197908 178.516566 41.029582 0 38.608823-126.192042c1.9177-6.227778 3.113889-12.106792 3.571578-17.638041l0.687534 0c0.618581 5.690142 1.923696 11.719054 3.921341 18.09673l38.608823 125.733353 39.758844 0L560.791767 86.314775zM721.532385 235.207425l-15.325609 0 0-119.27773 15.325609 0 0-29.614921-68.452389 0 0 29.614921 15.096764 0 0 119.27773-15.096764 0 0 29.623715 68.452389 0L721.532385 235.207425zM878.994226 164.387641c-13.402913-11.020528-30.173342-16.301947-50.301695-15.843258l-19.590717 0 0-62.229608-38.035212 0 0 178.516566 61.427152 0c44.407692 0 66.613636-18.823238 66.613636-56.469514C899.107589 190.077024 892.402135 175.419162 878.994226 164.387641zM825.922409 235.326345l-16.820596 0 0-57.62573 16.481625 0c22.350846 0 33.531266 9.725406 33.531266 29.157231C859.114704 225.839777 848.054203 235.326345 825.922409 235.326345z"  horiz-adv-x="1024" />

    
    <glyph glyph-name="zhuye" unicode="&#58952;" d="M867.2672 334.208c-81.216 66.496-162.048 133.376-243.072 200.128C586.9472 564.992 549.6992 595.648 512.3872 626.432c-3.264-2.368-6.016-4.288-8.64-6.4C387.2032 523.904 270.5312 427.84 154.2432 331.392 149.9552 327.808 146.9472 320.064 146.8832 314.24c-0.448-97.344-0.384-194.752-0.256-292.096 0-30.208 15.936-45.824 46.464-45.824 74.944-0.064 149.824 0 224.768 0 4.032 0 8.064 0.448 13.184 0.768 0 81.344 0 161.6 0 242.432 54.336 0 107.52 0 161.856 0 0-80.576 0-160.896 0-243.264 6.144 0 10.24 0 14.4 0 74.112 0 148.16 0 222.272 0 32.768 0 47.936 15.232 47.936 48.32 0.064 95.68-0.128 191.36 0.192 286.976C877.7632 321.408 874.8832 327.872 867.2672 334.208zM1009.7312 400.192c-38.08 31.68-75.776 63.808-114.56 94.592-13.184 10.432-18.24 21.12-18.048 38.208 1.024 76.608 0.512 153.28 0.448 229.888 0 18.624-5.888 26.176-21.504 26.304-39.808 0.32-79.616 0.32-119.424 0-14.016-0.128-20.8-7.04-21.312-21.312-0.512-12.672-0.192-25.408-0.192-38.08 0-27.008 0-54.016 0-84.032-6.4 5.12-9.984 7.936-13.504 10.88-44.16 36.928-88.32 73.856-132.544 110.784C530.2432 799.744 493.9552 799.808 455.0432 767.424 374.0192 700.032 293.0592 632.512 212.0352 565.056 146.3712 510.336 80.7072 455.552 14.9792 400.832-4.0288 384.96-4.6688 376.96 11.5232 357.76c9.28-11.008 18.432-22.08 27.712-33.088 13.888-16.448 23.04-17.28 39.552-3.456 108.864 90.816 217.728 181.76 326.656 272.576C440.7712 623.296 476.2272 652.8 512.0032 682.624c35.712-29.76 70.848-59.008 105.92-88.256 109.184-91.136 218.432-182.272 327.616-273.408 16.32-13.632 25.408-12.672 39.424 3.968 9.536 11.328 19.008 22.72 28.544 34.048C1028.4192 376.704 1027.6512 385.28 1009.7312 400.192z"  horiz-adv-x="1025" />

    
    <glyph glyph-name="shouji-copy" unicode="&#58880;" d="M738.166 844.489h-395.599c-59.593 0-107.893-47.601-107.893-106.261v-708.452c0-58.66 48.3-106.262 107.893-106.262h395.599c59.592 0 107.893 47.602 107.893 106.262v708.451c0 58.661-48.301 106.262-107.893 106.262v0zM504.391 809.046h71.918c9.96 0 17.988-7.895 17.988-17.688s-8.028-17.688-17.988-17.688h-71.918c-9.926 0-17.954 7.895-17.954 17.688s8.028 17.688 17.954 17.688v0zM540.366-33.217c-25.416 0-46.002 20.286-46.002 45.269 0 25.050 20.586 45.303 46.002 45.303 25.383 0 45.969-20.253 45.969-45.303 0-24.982-20.586-45.269-45.969-45.269v0zM774.108 118.314c0-9.76-8.028-17.688-17.988-17.688l-431.541 0c-9.96 0-17.988 7.928-17.988 17.688v602.191c0 9.793 8.028 17.722 17.988 17.722h431.541c9.96 0 17.988-7.929 17.988-17.722l0-602.191zM774.108 118.314z"  horiz-adv-x="1024" />

    
    <glyph glyph-name="weibo" unicode="&#58996;" d="M1016.06194 889.944887C973.557038 899.619375 916.554408 897.687101 845.054045 884.146456 844.096939 884.146456 843.123419 883.668739 842.133482 882.709989L840.69701 879.789416 839.260534 878.352949C828.62733 875.44715 819.924753 869.404131 813.154435 860.222183 806.385765 851.040236 803.000606 841.132619 803.000606 830.501088 803.000606 816.003351 807.837016 803.932037 817.513113 794.287099 827.187572 784.640552 838.77952 779.804185 852.290597 779.774636L856.647632 779.774636C857.606377 779.774636 859.784897 780.252353 863.186469 781.211103 866.586403 782.168194 870.203037 782.895473 874.03473 783.389623 877.868071 783.883772 881.978851 784.857297 886.368722 786.310147 890.758589 787.763047 894.623117 789.215946 897.962309 790.668845 901.299857 792.120087 907.822276 792.847365 917.529571 792.847365 927.23686 792.847365 939.075059 792.120087 953.047454 790.668845 967.019844 789.215946 982.476321 785.599301 999.416881 779.81896 1016.35744 774.03857 1033.266812 766.788897 1050.143348 758.071501 1067.021522 749.355812 1083.92925 737.284498 1100.869809 721.857561 1117.810374 706.432281 1132.541225 688.564145 1145.059083 668.256517 1170.191657 611.253868 1175.029705 556.183492 1159.57159 503.045391 1159.57159 502.086641 1159.325334 501.113166 1158.831189 500.123209 1158.33704 499.134909 1157.611414 496.72326 1156.652669 492.889919 1155.693924 489.056578 1154.720405 485.439982 1153.73211 482.040034 1152.742173 478.640086 1151.768653 474.297821 1150.809908 469.009971 1149.851164 463.723731 1149.373432 459.133562 1149.373432 455.239512 1149.373432 446.553324 1151.785071 439.305309 1156.608345 433.493711 1161.429975 427.682163 1167.474668 423.571368 1174.73913 421.159719 1182.003588 418.748119 1190.458276 417.543123 1200.10318 417.544733 1227.151606 417.544733 1243.087453 433.974744 1247.909088 466.834718 1259.501032 504.516381 1266.023456 540.49885 1267.476345 574.780516 1268.930878 609.063889 1266.519244 639.247926 1260.243075 665.337602 1253.966907 691.427278 1244.553479 715.817808 1232.004429 738.507536 1219.455379 761.197312 1204.957647 780.518298 1188.511237 796.467277 1172.066461 812.417914 1153.704199 826.915651 1133.426092 839.960489 1113.147984 853.005327 1093.580722 863.392269 1074.722673 871.11966 1055.866267 878.847099 1036.299005 885.123247 1016.020898 889.944887L1016.06194 889.944887ZM1040.683952 481.343963C1046.49552 481.343963 1051.812943 482.796862 1056.634574 485.702612 1061.456209 488.606753 1065.320738 492.223398 1068.226522 496.550888 1071.133949 500.880037 1073.066214 505.470157 1074.023315 510.321347 1074.98206 511.280097 1075.46143 512.732996 1075.46143 514.680045 1087.05174 624.820796 1048.411366 687.618561 959.53868 703.075048 933.447361 707.896688 909.289945 708.376014 887.064798 704.511515 880.29448 704.511515 874.49933 702.827144 869.677695 699.458403 864.856065 696.089663 860.743642 691.747397 857.343708 686.42834 853.943774 681.110893 852.259404 675.562023 852.290597 669.781633 852.290597 660.107194 855.675756 651.90038 862.446069 645.161289 869.216381 638.422149 877.423171 635.036976 887.06808 635.005817 962.431333 652.409304 1003.003966 628.251903 1008.784342 562.531906 1010.731386 546.118327 1009.757861 530.66184 1005.863783 516.164103 1005.863783 506.488006 1009.248942 498.281241 1016.019255 491.542101 1022.787929 484.80301 1030.996357 481.417837 1040.639623 481.386629L1040.683952 481.343963ZM526.271396 178.464334C519.501083 173.642694 512.499294 171.462516 505.264381 171.927116 498.031111 172.391716 492.961582 175.528986 490.055798 181.340584L487.133596 187.137357C486.176494 189.084406 485.697119 191.016681 485.697119 192.934131L485.697119 198.730954C485.697119 201.636704 486.176494 204.048353 487.133596 205.965852L490.055798 211.762626C491.012899 213.709675 492.465794 215.162574 494.412833 216.119666L498.769868 221.916489C506.498926 227.729695 513.980095 230.139686 521.213364 229.151387 528.446634 228.16143 533.516159 224.29693 536.423586 217.557791 539.327727 213.693291 540.532727 209.349368 540.038578 204.527728 539.544433 199.706087 538.091538 195.115967 535.681542 190.757269 533.269908 186.398571 530.132643 182.287826 526.268114 178.424935L526.271396 178.464334ZM403.115376 74.135181C397.303803 73.17804 391.754904 72.930185 386.468676 73.394737 381.182446 73.857728 376.346038 74.832861 371.956169 76.31531 367.5663 77.797759 363.22404 79.482129 358.926105 81.368421 354.629812 83.253104 351.013177 85.910999 348.0762 89.343764 345.140865 92.776529 342.482975 96.161654 340.100888 99.499236 337.718802 102.836769 335.786537 106.701269 334.304094 111.091174 332.820009 115.482689 332.094384 120.072809 332.125576 124.861633 332.125576 135.49648 335.031361 145.881765 340.842931 156.020853 346.6545 166.159892 354.629812 174.862465 364.768866 182.126912 374.907921 189.391409 386.253615 193.502155 398.804308 194.460904 407.490468 195.417996 415.945151 195.17175 424.168359 193.718851 432.391566 192.26761 439.39336 189.856009 445.173735 186.48561 450.954115 183.115212 456.025283 179.250712 460.383962 174.892014 464.744278 170.534974 467.881543 165.46543 469.79739 159.683431 471.713236 153.899774 472.686756 147.625234 472.717949 140.856594 472.717949 130.223356 469.580689 120.084317 463.30452 110.439428 457.029995 100.79288 448.575312 92.586066 437.940465 85.817377 427.305623 79.048737 415.713675 75.184188 403.162982 74.223829L403.115376 74.135181ZM455.281601 348.035768C427.276074 345.129969 402.159913 338.607526 379.931481 328.468487 357.70469 318.327789 340.317591 306.735851 327.768541 293.691013 315.21949 280.644517 304.586288 266.642588 295.867293 251.681908 287.148297 236.721229 281.105249 221.990363 277.736509 207.492625 274.367769 192.994888 272.189251 179.716921 271.199314 167.662041 270.207736 155.607111 269.730005 146.19535 269.761197 139.425003L271.199314 127.831456 271.199314 122.034633C271.199314 119.128834 272.172834 113.333718 274.119874 104.64753 276.066914 95.959732 278.724804 87.984438 282.095186 80.719942 285.465568 73.455494 291.014468 65.4802 298.741885 56.794011 306.469303 48.107871 315.651254 40.858198 326.286098 35.046601 390.059044 4.135285 449.471671-5.278134 504.525619 6.809612 559.579571 18.8957 604.015095 46.669747 637.833834 90.131751 651.372821 106.54533 660.306875 126.839841 664.636004 151.013675 668.965128 175.187509 667.991608 199.57643 661.715445 224.181999 655.439277 248.789226 644.572954 271.245874 629.119763 291.556817 613.664924 311.866103 590.727283 327.568836 560.30684 338.666625 529.888031 349.764462 494.864297 352.903341 455.235633 348.080092L455.281601 348.035768ZM497.290711-53.377898C392.961548-58.201196 304.33511-37.906637 231.411405 7.504026 158.489341 52.914737 122.027489 110.395103 122.02913 179.948392 122.02913 248.541323 158.259505 307.707718 230.716972 357.447528 303.17608 407.185681 392.048765 434.48201 497.336678 439.334858 602.624586 444.186048 691.497272 426.798945 763.954741 387.170281 836.413849 347.541618 872.642583 293.446376 872.642583 224.881386 872.642583 155.328049 835.688223 92.776529 761.776221 37.226779 687.865863-18.321314 599.718802-48.507009 497.336678-53.328649L497.290711-53.377898ZM939.22938 397.278113C924.731648 400.183912 915.319858 404.526177 910.990734 410.308176 906.663248 416.088566 905.937622 421.405965 908.812214 426.258813L913.170892 433.492102C914.127994 434.450852 915.101513 435.902093 916.091451 437.850751 917.079745 439.7978 919.01201 443.908595 921.888244 450.183085 924.76284 456.459283 926.942999 462.733822 928.425443 469.009971 929.909525 475.284511 931.114521 483.011901 932.042078 492.192239 932.96963 501.372528 932.721736 510.075101 931.301677 518.298299 929.879976 526.521545 926.974192 535.455589 922.582677 545.09882 918.191167 554.743759 912.148123 563.446331 904.451897 571.204929 890.912909 584.743916 873.277917 593.44488 851.545271 597.311037 829.812626 601.175586 808.081629 601.421831 786.348983 598.051433 764.617981 594.679425 744.09198 590.337159 724.772612 585.021369 705.453249 579.70558 689.51904 574.636084 676.966709 569.811128L658.141491 561.093781C648.467032 558.188031 640.491724 556.255757 634.215556 555.297007 627.939387 554.3366 623.101339 554.582846 619.703048 556.037403 616.303115 557.490302 613.645225 558.943201 611.726097 560.394443 609.808607 561.847342 609.081338 565.230858 609.547577 570.549915 610.013815 575.867314 610.491547 580.457483 610.984053 584.320373 611.476559 588.181606 612.681555 594.226284 614.600688 602.451139 616.518178 610.675995 617.971067 617.198438 618.957723 622.01842 618.957723 633.610359 618.232098 644.475019 616.779203 654.614107 615.326314 664.753146 612.189049 676.098839 607.365775 688.647869 602.544144 701.198606 595.542351 711.337645 586.360398 719.066693 577.178446 726.795741 565.586503 733.070281 551.582915 737.891921 537.579332 742.713561 519.463327 744.166461 497.238175 742.25057 475.011385 740.33312 449.895224 734.537955 421.888059 724.863516 388.070962 713.271528 353.774493 696.13072 318.998652 673.439334 284.222811 650.749558 254.037125 627.086306 228.441594 602.451139 202.846063 577.814363 179.414275 553.904865 158.146229 530.71933 136.879825 507.532137 120.449828 488.692134 108.856239 474.194397L92.905615 451.012178C61.035559 409.464358 37.372293 367.918195 21.917458 326.37369 6.460981 284.827527-0.787064 253.435227 0.170039 232.196741L0.170039 201.777917C5.983251 155.410114 20.233088 113.863952 42.921192 77.139429 65.610939 40.416565 92.65772 10.710244 124.066463-11.979483 155.475205-34.669259 192.431206-53.988588 234.932822-69.940883 277.436081-85.891519 318.254968-97.483458 357.39277-104.718356 396.528928-111.951645 437.828831-117.021141 481.289192-119.928597 552.789559-125.740146 626.933037-120.191227 703.717986-103.281889 780.504579-86.370845 851.988529-57.143948 918.174749-15.597786 984.359337 25.948377 1030.975019 75.701353 1058.020158 133.662704 1074.43538 167.481428 1082.890063 199.366268 1083.385851 229.322101 1083.881644 259.276326 1078.810471 283.666856 1068.17563 302.490426 1057.540783 321.315654 1043.768676 337.977136 1026.860953 352.476483 1009.954868 366.975878 994.019016 377.610724 979.055045 384.377756 964.092717 391.146445 950.816398 395.490319 939.226093 397.407819L939.22938 397.278113Z"  horiz-adv-x="1268" />

    
    <glyph glyph-name="dianhua" unicode="&#58993;" d="M89.472 672.832c0 0 75.008 159.424 201.792 0 126.528-159.616 0-206.4 0-206.4S206.912 386.624 272.448 334.976c65.664-51.456 225.28-192.256 225.28-192.256s63.232-84.288 131.2-23.36c84.48 70.144 117.312 81.984 182.912 32.768 114.496-85.376 150.272-171.264-23.232-239.232-192.384-93.824-534.784 229.888-534.784 229.888S-84.032 466.432 89.472 672.832zM525.76 590.336c0 0-63.232-6.72-51.712 59.2C479.36 679.488 530.368 689.344 577.28 675.072c47.168-14.016 222.912-91.392 230.016-288.512 0 0-12.992-55.296-54.208-44.352-44.288 11.776-32.64 95.616-35.136 111.936C715.712 470.528 654.848 597.312 525.76 590.336zM647.616 761.536c0 0-77.376-8.064-63.104 72.256 6.336 36.864 68.928 48.896 126.528 31.68 57.408-17.28 272.704-112 281.216-353.152 0 0-18.432-75.264-65.792-54.72-41.408 18.24-43.52 120-46.272 140.096C877.056 617.792 805.888 770.176 647.616 761.536z"  horiz-adv-x="1024" />

    
    <glyph glyph-name="dingdan" unicode="&#58912;" d="M214.527629 345.141522c0-13.17414 6.762027-23.868969 28.238417-23.868969l559.764854 0c21.47938 0 28.217482 10.694829 28.217482 23.868969 0 13.21601-6.782962 23.91383-28.217482 23.91383L242.766046 369.055352C221.286666 369.055352 214.527629 358.357532 214.527629 345.141522zM802.5309 68.882357 242.766046 68.882357c-21.47938 0-28.238417-10.65595-28.238417-23.87196 0-13.21601 6.762027-23.910839 28.238417-23.910839l559.764854 0c21.47938 0 28.217482 10.694829 28.217482 23.910839C830.745391 58.226407 824.00729 68.882357 802.5309 68.882357zM969.834996 679.40279 969.834996 679.447651c-0.651978 0.693848-1.306946 1.348817-2.000794 1.997804 0 0.044861 0 0.044861-0.047852 0.044861l-213.866679 203.348303c-0.131592 0.086731-0.263184 0.215332-0.349915 0.305054l-0.044861 0.04187c-0.04187 0-0.04187 0-0.04187 0-5.350405 5.087222-12.172247 8.697026-19.828501 10.087712-0.086731 0.04187-0.173462 0.04187-0.260193 0.04187-0.693848 0.128601-1.390687 0.260193-2.132386 0.346924-0.260193 0-0.562256 0.044861-0.82544 0.086731-0.523377 0.04187-1.127503 0.086731-1.65088 0.131592-0.693848 0.04187-1.390687 0.086731-2.084535 0.086731l-643.244936 0c-21.500315 0-38.936237-16.870675-38.936237-37.695086l0-948.567957c0-20.872263 17.435921-37.736956 38.936237-37.736956l857.069745 0c21.482371 0 38.957172 16.867684 38.957172 37.736956L979.483072 654.576789C979.489053 664.099255 975.834389 672.79329 969.834996 679.40279zM923.13783 655.707283l-196.870394 0-1.782472 180.609827L923.13783 655.707283zM940.528891-89.165448 83.459146-89.165448 83.459146 857.099652l603.851118 0L687.310264 654.576789c0-20.827403 17.432931-37.695086 38.954181-37.695086l214.264445 0L940.528891-89.165448zM802.5309 218.965864 242.766046 218.965864c-21.47938 0-28.238417-10.694829-28.238417-23.91383 0-13.171149 6.762027-23.91383 28.238417-23.91383l559.764854 0c21.47938 0 28.217482 10.742681 28.217482 23.91383C830.745391 208.271034 824.00729 218.965864 802.5309 218.965864z"  horiz-adv-x="1024" />

    
    <glyph glyph-name="sijiaohetong" unicode="&#59053;" d="M694.053 392.826h-403.455c-7.158-0.222-12.877-6.078-12.877-13.27 0-7.192 5.718-13.048 12.856-13.269l403.475-0.001c7.329 0 13.27 5.941 13.27 13.27s-5.941 13.27-13.27 13.27M694.053 502.607h-403.455c-7.332-0-13.276-5.944-13.276-13.276 0-7.332 5.944-13.276 13.276-13.276h403.455c7.332 0 13.276 5.944 13.276 13.276s-5.944 13.276-13.276 13.276M290.61 583.305h184.554c7.158 0.222 12.877 6.078 12.877 13.27s-5.718 13.048-12.856 13.269l-184.574 0.001c-7.158-0.222-12.877-6.078-12.877-13.27s5.718-13.048 12.856-13.269M728.975-127.94c-100.822 0-182.851 82.029-182.851 182.851 0 100.81 82.029 182.839 182.851 182.839s182.851-82.029 182.851-182.839c0-100.822-82.029-182.851-182.851-182.851M728.975 189.78c-74.378 0-134.881-60.503-134.881-134.869s60.503-134.881 134.881-134.881 134.881 60.515 134.881 134.881-60.503 134.869-134.881 134.869M522.607-4.356l-22.45-21.659-106.182 102.393c-5.938 5.736-14.036 9.27-22.958 9.27-0.020 0-0.039-0-0.059-0-8.32 0-16.595-3.082-23.047-9.27l-95.749-96.9-84.392 79.619v782.481h523.933v-108.173c0-10.985 8.899-19.908 19.908-19.908h124.171v-455.119c35.359-20.144 63.843-48.718 83.311-83.073l-31.251 546.551c0 0.010 0 0.022 0 0.035 0 9.227-3.776 17.572-9.866 23.575l-143.076 140.989c-5.966 5.901-14.173 9.546-23.231 9.546-0.021 0-0.041-0-0.062-0l-566.287 0c-0.011 0-0.023 0-0.036 0-18.307 0-33.148-14.841-33.148-33.148 0-0.004 0-0.008 0-0.013l-0-807.173c0-8.97 3.646-17.617 10.158-23.853l100.294-100.282c5.958-5.754 14.081-9.299 23.032-9.299s17.074 3.545 23.041 9.308l102.299 102.216 106.17-102.369c5.957-5.75 14.078-9.293 23.026-9.293s17.069 3.543 23.036 9.303l20.713 19.982c-16.381 25.656-27.694 56.103-31.754 88.799M639.127 283.022h-348.517c-0 0-0 0-0 0-7.329 0-13.27-5.941-13.27-13.27 0-7.329 5.941-13.27 13.27-13.27 0 0 0 0 0 0l300.007 0c26.845 19.684 59.19 33.516 94.309 38.955M724.286 41.311v-24.297c-8.095 6.296-14.403 11.705-18.9 16.202v-58.704h-26.312v49.925c-5.852-9.438-14.175-18.888-24.969-28.339v24.969c16.050 21.717 27.034 48.108 30.701 76.787l-30.029-28.876v19.572h24.297v16.19h-22.27v19.572h41.159c9.894 0 19.572 1.343 29.022 4.042v-20.244c-7.651-1.799-14.847-2.926-21.599-3.37v-16.19h22.27v-19.572h-21.587c3.142-8.551 9.21-17.773 18.217-27.667M795.81 56.83c7.196-24.741 12.592-50.837 16.19-78.276h-27.667c0 3.598-0.228 6.752-0.672 9.45-11.249-2.255-23.841-3.37-37.789-3.37h-22.258v19.56c12.58 35.99 20.675 76.705 24.285 122.133h30.365c-6.752-49.481-16.646-90.412-29.694-122.804 9.894 0 21.143 1.127 33.747 3.37-5.138 39.666-13.76 75.44-25.757 109.627l39.248-59.689z"  horiz-adv-x="1024" />

    
    <glyph glyph-name="shexiang" unicode="&#58898;" d="M720.364 448.352V593.867c0 24.945-16.937 41.576-42.343 41.576H169.914c-25.406 0-42.343-16.63-42.343-41.576v-415.76c0-24.944 16.937-41.575 42.343-41.575H678.02c25.406 0 42.343 16.63 42.343 41.576V323.623l169.369-166.304V614.653l-169.37-166.301z"  horiz-adv-x="1024" />

    
    <glyph glyph-name="tuanke" unicode="&#58903;" d="M628.69504 379.6992c75.4688 49.29536 125.41952 134.59456 125.41952 231.424C754.11456 763.392 630.12864 887.3984 477.88032 887.3984 325.632 887.37792 201.64608 763.392 201.64608 611.1232c0-96.6656 49.93024-181.9648 125.41952-231.424a475.66848 475.66848 0 0 1-186.61376-115.48672A473.9072 473.9072 0 0 1 0.7168-73.05216a35.2256 35.2256 0 0 1 35.328-35.328 35.2256 35.2256 0 0 1 35.34848 35.328c0 224.0512 182.272 406.3232 406.3232 406.3232s406.3232-182.272 406.3232-406.3232a35.2256 35.2256 0 0 1 35.34848-35.328 35.2256 35.2256 0 0 1 35.328 35.328 473.9072 473.9072 0 0 1-139.73504 337.26464 474.07104 474.07104 0 0 1-186.28608 115.48672zM272.30208 610.95936c0 113.39776 92.18048 205.57824 205.57824 205.57824 113.37728 0 205.57824-92.18048 205.57824-205.57824 0-113.37728-92.20096-205.55776-205.57824-205.55776-113.23392 0-205.57824 92.18048-205.57824 205.55776z m873.0624-370.176a476.30336 476.30336 0 0 1-221.65504 176.3328 354.5088 354.5088 0 0 1 60.39552 201.23648 356.43392 356.43392 0 0 1-92.01664 236.58496 35.328 35.328 0 0 1-49.9712 2.39616 35.328 35.328 0 0 1-2.39616-49.95072c98.14016-108.2368 98.77504-272.384 1.4336-381.7472-2.2528-2.58048-4.15744-5.46816-5.44768-8.35584a33.71008 33.71008 0 0 1-4.01408-9.15456 35.4304 35.4304 0 0 1 24.8832-43.35616c194.17088-52.03968 319.61088-234.8032 298.57792-434.2784a35.34848 35.34848 0 0 1 31.47776-38.87104 35.4304 35.4304 0 0 1 38.87104 31.47776 476.79488 476.79488 0 0 1-80.15872 317.68576z"  horiz-adv-x="1228" />

    
    <glyph glyph-name="fenxiang" unicode="&#58913;" d="M786.895 301.283c-55.204 0-104.215-26.508-135.009-67.487L386.644 366.87c4.192 14.718 6.436 30.255 6.436 46.319 0 17.596-2.695 34.559-7.692 50.507L649.627 596.27c30.624-42.722 80.69-70.561 137.266-70.561 93.214 0 168.778 75.563 168.778 168.778 0 93.214-75.564 168.778-168.778 168.778-93.215 0-168.778-75.564-168.778-168.778 0-6.449 0.375-12.81 1.078-19.072L340.5 535.591c-30.262 28.739-71.171 46.378-116.201 46.378-93.214 0-168.778-75.563-168.778-168.778s75.563-168.778 168.778-168.778c46.669 0 88.911 18.942 119.463 49.556l275.921-138.431a170.212 170.212 0 0 1-1.572-23.031c0-93.215 75.563-168.778 168.778-168.778s168.778 75.563 168.778 168.778c-0.001 93.213-75.558 168.777-168.773 168.777z"  horiz-adv-x="1024" />

    
    <glyph glyph-name="zhifubaozhifu" unicode="&#58932;" d="M1024.0512 194.9696V699.136A196.9664 196.9664 0 0 1 827.136 896H196.864A196.9664 196.9664 0 0 1 0 699.136v-630.272A196.9152 196.9152 0 0 1 196.864-128h630.272a197.12 197.12 0 0 1 193.8432 162.0992c-52.224 22.6304-278.528 120.32-396.4416 176.64-89.7024-108.6976-183.7056-173.9264-325.3248-173.9264s-236.1856 87.2448-224.8192 194.048c7.4752 70.0416 55.552 184.576 264.2944 164.9664 110.08-10.3424 160.4096-30.8736 250.1632-60.5184 23.1936 42.5984 42.496 89.4464 57.1392 139.264H248.064v39.424h196.9152V584.8576H204.8V628.224h240.128V730.368s2.1504 15.9744 19.8144 15.9744h98.4576V628.224h256v-43.4176h-256V514.048h208.8448a805.9904 805.9904 0 0 0-84.8384-212.6848c60.672-22.016 336.7936-106.3936 336.7936-106.3936zM283.5456 104.3968c-149.6576 0-173.312 94.464-165.376 133.9392 7.8336 39.3216 51.2 90.624 134.4 90.624 95.5904 0 181.248-24.4736 284.0576-74.5472-72.192-94.0032-160.9216-150.016-253.0816-150.016z"  horiz-adv-x="1024" />

    
    <glyph glyph-name="weixinzhifu" unicode="&#58937;" d="M530.8928 192.8704a41.472 41.472 0 0 0-35.7376 19.8144l-2.7136 5.5808L278.272 501.248a18.7392 18.7392 0 0 0-2.048 8.1408 19.968 19.968 0 0 0 20.48 19.3536c4.608 0 8.8576-1.4336 12.288-3.84l234.3936-139.9296a64.4096 64.4096 0 0 1 54.528-5.9392L1116.2624 691.2C1004.9536 815.104 821.76 896 614.4 896 275.0464 896 0 679.424 0 412.3648c0-145.7152 82.7392-276.8896 212.2752-365.5168a38.1952 38.1952 0 0 0 17.2032-31.488 44.4928 44.4928 0 0 0-2.1504-12.3904l-27.6992-97.4848c-1.3312-4.608-3.328-9.3696-3.328-14.1312 0-10.752 9.216-19.3536 20.48-19.3536 4.4032 0 8.0384 1.536 11.776 3.584l134.5536 73.3184c10.1376 5.5296 20.7872 8.96 32.6144 8.96 6.2976 0 12.288-0.9216 18.0736-2.5088 62.72-17.0496 130.4576-26.5728 200.5504-26.5728C953.7024-71.168 1228.8 145.408 1228.8 412.3648c0 80.9472-25.4464 157.1328-70.0416 224.1024l-604.9792-436.992-4.4544-2.4064a42.1376 42.1376 0 0 0-18.432-4.1984z"  horiz-adv-x="1228" />

    
    <glyph glyph-name="weibo1" unicode="&#59083;" d="M0 691.2a204.8 204.8 0 0 0 204.8 204.8h614.4a204.8 204.8 0 0 0 204.8-204.8v-614.4a204.8 204.8 0 0 0-204.8-204.8H204.8a204.8 204.8 0 0 0-204.8 204.8V691.2z m659.8656-300.6976c-23.8592 4.6592-12.288 17.4592-12.288 17.4592s23.3984 38.6048-4.608 66.7136c-34.7136 34.7648-119.1424-4.352-119.1424-4.352-32.1536-9.984-23.6544 4.608-19.0976 29.3376 0 29.2352-9.9328 78.6432-95.7952 49.5104-85.8112-29.44-159.3856-132.352-159.3856-132.352-51.2-68.352-44.4416-121.2416-44.4416-121.2416 12.8-116.736 136.6016-148.7872 232.96-156.416 101.376-7.8848 238.1824 34.9696 279.6544 123.2384 41.472 88.32-33.8432 123.2896-57.856 128.1024zM445.5424 172.032c-100.608-4.6592-182.016 45.824-182.016 113.0496 0 67.328 81.408 121.2416 182.016 125.952 100.7104 4.608 182.272-36.9664 182.272-104.0896s-81.5616-130.304-182.272-134.912z m-20.0192 194.7136c-101.2224-11.8272-89.4976-106.752-89.4976-106.752s-1.024-30.1056 27.136-45.3632c59.136-32.1536 120.2176-12.6976 150.9376 27.136 30.8224 39.7824 12.8 136.7552-88.576 124.9792z m-25.5488-133.2736c-18.8928-2.2016-34.1504 8.704-34.1504 24.576 0 15.6672 13.5168 32.256 32.4096 34.2016 21.7088 2.048 35.84-10.3936 35.84-26.3168 0.0512-15.7184-15.3088-30.3104-34.0992-32.4608z m59.6992 50.8928c-6.4512-4.8128-14.336-4.1984-17.664 1.6384a14.848 14.848 0 0 0 4.3008 19.2512c7.4752 5.632 15.2576 3.9424 18.688-1.6384 3.328-5.632 0.9216-14.2848-5.3248-19.2512z m249.4976 147.2512c8.192 0 15.0528 5.9904 16.3328 13.9264 0.1024 0.6144 0.2048 1.1264 0.2048 1.792 12.3392 111.2064-91.0848 92.0576-91.0848 92.0576a16.5376 16.5376 0 0 1-16.4864-16.7424c0-9.1648 7.3728-16.5376 16.4864-16.5376 74.24 16.4352 57.9584-57.9584 57.9584-57.9584a16.4352 16.4352 0 0 1 16.5888-16.5376z m-12.032 194.1504c-35.7376 8.448-72.5504 1.1776-82.8416-0.8192-0.8192-0.1024-1.536-0.8192-2.304-0.9216a1.9456 1.9456 0 0 1-0.6144-0.4096 24.2688 24.2688 0 0 1 6.5536-47.616s12.9536 1.792 21.8112 5.2224c8.704 3.584 82.8416 2.6112 119.6032-59.1872 20.0192-45.1584 8.8064-75.3664 7.3728-80.2304 0 0-4.7616-11.776-4.7616-23.3472 0-13.312 10.6496-21.7088 24.064-21.7088 11.1104 0 20.48 1.536 23.1424 20.3776h0.1024c39.68 131.84-48.128 193.792-112.128 208.64z"  horiz-adv-x="1024" />

    
    <glyph glyph-name="gengduo" unicode="&#58890;" d="M511.34122667 322.58730667c-34.08668445 0-61.72444445 27.63662222-61.72444445 61.72444444 0 34.11057778 27.63776 61.7472 61.72444445 61.7472s61.7472-27.63662222 61.7472-61.7472c0-34.08782222-27.66051555-61.72444445-61.7472-61.72444444zM264.39907555 322.58730667c-34.11057778 0-61.7472 27.63662222-61.7472 61.72444444 0 34.11057778 27.63662222 61.7472 61.7472 61.7472 34.08782222 0 61.72444445-27.63662222 61.72444445-61.7472 0-34.08782222-27.63889778-61.72444445-61.72444445-61.72444444zM758.30840889 322.58730667c-34.08782222 0-61.74833778 27.63662222-61.74833778 61.72444444 0 34.11057778 27.66165333 61.7472 61.74833778 61.7472 34.08782222 0 61.7472-27.63662222 61.7472-61.7472 0-34.08782222-27.65937778-61.72444445-61.7472-61.72444444zM789.16039111-78.73422221999999c102.14172445 0 185.22794667 83.08622222 185.22794667 185.22794667V662.13319111c0 102.14172445-83.08622222 185.22794667-185.22794667 185.22794667H233.52092445c-102.14286222 0-185.22908445-83.08622222-185.22908445-185.22794667v-555.63946666c0-102.14172445 83.08622222-185.22908445 185.23022222-185.22908445h555.63832889m0-46.30641778H233.52092445c-127.87143111 0-231.53664 103.66520889-231.53664 231.53777778V662.13205333c0 127.87029333 103.66520889 231.53550222 231.53777777 231.53550222h555.63832889c127.87029333 0 231.53550222-103.66520889 231.53550222-231.53550222v-555.63946666c0-127.87029333-103.66520889-231.53550222-231.53550222-231.53550222z"  horiz-adv-x="1024" />

    
    <glyph glyph-name="shuju" unicode="&#59052;" d="M1931.893 709.889c-50.413 0-93.625-39.61-93.625-93.625 0-10.804 3.601-25.208 7.202-36.009l-342.094-338.492c-21.606 10.804-50.413 10.804-72.020 0l-342.093 342.093c3.601 10.804 7.202 25.208 7.202 36.009-3.601 50.413-43.212 90.024-97.226 90.024s-93.625-43.212-93.625-93.625c0-10.804 3.601-25.208 7.202-36.009l-342.093-338.492c-46.812 18.005-100.826-3.601-118.832-50.413-18.005-46.812 3.601-100.826 50.413-118.832 46.812-21.606 100.826 0 118.832 50.413 3.601 10.804 7.202 21.606 7.202 36.009 0 10.804-3.601 25.208-7.202 36.009l342.093 334.891c21.606-10.804 50.413-10.804 72.020 0l345.693-342.093c-3.601-10.804-7.202-25.208-7.202-36.010 0-50.413 43.212-93.625 93.625-93.625s93.625 43.212 93.625 93.625c0 10.804-3.601 25.208-7.202 36.010l342.093 342.093c46.812-18.005 100.826 3.601 122.434 50.413 3.601 10.804 7.202 25.208 7.202 36.009 0 54.015-43.212 93.625-93.625 93.625z"  horiz-adv-x="2503" />

    
    <glyph glyph-name="leishougongqixiex" unicode="&#59018;" d="M833.92-127.104a189.952 189.952 0 0 0-189.696 185.856L354.56 348.352a106.24 106.24 0 0 0-29.248 55.36l-93.12-31.808c-33.28-11.392-80.128-0.064-104.768 24.512L29.568 494.208C4.48 519.296-6.272 565.376 5.12 599.04l20.096 58.752c6.784 19.84 20.608 33.536 37.824 37.632a47.616 47.616 0 0 0 10.88 1.28c9.92 0 24.96-3.2 40.064-18.176l62.72-62.848a26.24 26.24 0 0 1 36.608-0.128l67.52 67.52a25.984 25.984 0 0 1 0.064 36.608l-62.848 62.72c-14.848 14.72-21.12 33.216-17.088 50.688 4.16 17.536 17.856 31.36 37.632 38.144l58.688 20.032c33.472 11.392 80.192 0.128 104.896-24.448l97.856-97.92c25.152-25.152 35.904-71.168 24.448-104.832L492.672 570.88c20.928-3.84 40.064-13.952 55.36-29.184l289.6-289.6a189.888 189.888 0 0 0 185.92-189.696 189.952 189.952 0 0 0-189.696-189.568zM406.4 489.92l-17.664-51.712a43.712 43.712 0 0 1 10.112-45.504l309.248-309.248-1.088-16.704c-0.064-1.408-0.256-2.816-0.256-4.224 0-70.016 57.024-126.976 127.104-126.976 70.016 0 126.976 56.96 126.976 126.976 0 70.016-56.96 127.04-126.976 127.04-1.408 0-2.752-0.128-4.096-0.192l-16.896-1.088-309.12 309.248a44.608 44.608 0 0 1-45.632 10.112l-51.712-17.728zM80 624l-15.552-45.056c-3.776-11.2 1.088-32 9.472-40.32l97.92-97.92c5.12-5.12 17.792-10.688 30.976-10.688a29.76 29.76 0 0 1 9.216 1.28l188.8 64.384L465.28 684.288c3.84 11.2-1.088 32-9.536 40.384L357.888 822.528C352.64 827.712 339.968 833.28 326.848 833.28A30.528 30.528 0 0 1 317.44 832l-44.928-15.36 52.672-52.736a88.64 88.64 0 0 0 0-125.12L257.536 571.264a87.68 87.68 0 0 0-62.4-25.792c-23.68 0-46.08 9.152-62.72 25.984l-52.544 52.48z m753.92-657.408c-52.928 0-96 43.072-96 96 0 25.728 9.984 49.92 28.16 67.968a96.192 96.192 0 0 0 163.84-67.968c0-52.928-43.008-96-96-96z m0 129.408c-8.96 0-17.28-3.52-23.552-9.792a33.408 33.408 0 1 1 23.552 9.792z"  horiz-adv-x="1024" />

    
    <glyph glyph-name="zhaoxiang" unicode="&#58960;" d="M512 337.454545m-186.181818 0a186.181818 186.181818 0 1 1 372.363636 0 186.181818 186.181818 0 1 1-372.363636 0ZM907.636364 640h-79.127273L791.272727 723.781818C777.309091 756.363636 744.727273 779.636364 707.490909 779.636364H316.509091c-37.236364 0-69.818182-23.272727-86.109091-55.854546L195.490909 640H116.363636c-65.163636 0-116.363636-51.2-116.363636-116.363636v-418.909091c0-65.163636 51.2-116.363636 116.363636-116.363637h791.272728c65.163636 0 116.363636 51.2 116.363636 116.363637V523.636364c0 65.163636-51.2 116.363636-116.363636 116.363636zM512 81.454545c-141.963636 0-256 114.036364-256 256s114.036364 256 256 256 256-114.036364 256-256-114.036364-256-256-256z"  horiz-adv-x="1024" />

    
    <glyph glyph-name="weixin" unicode="&#58881;" d="M866.676364 567.854545c13.917091 0 27.694545-0.977455 41.378909-2.513454C870.818909 737.745455 685.614545 865.745455 474.205091 865.745455 237.847273 865.745455 44.218182 705.489455 44.218182 501.946182c0-117.480727 64.418909-213.922909 172.078545-288.768l-43.008-128.651637 150.295273 74.938182c53.806545-10.565818 96.954182-21.410909 150.621091-21.410909 13.498182 0 26.856727 0.651636 40.168727 1.675637a316.648727 316.648727 0 0 0-13.312 89.6c0 186.88 161.326545 338.571636 365.568 338.571636z m-231.237819 115.991273c32.349091 0 53.806545-21.178182 53.806546-53.341091 0-32.116364-21.410909-53.527273-53.806546-53.527272-32.209455 0-64.558545 21.410909-64.558545 53.527272 0 32.162909 32.349091 53.341091 64.558545 53.341091zM334.522182 576.930909c-32.209455 0-64.744727 21.504-64.744727 53.527273 0 32.209455 32.535273 53.387636 64.744727 53.387636 32.209455 0 53.666909-21.178182 53.666909-53.341091 0-32.116364-21.410909-53.527273-53.666909-53.527272z m924.532363-342.434909c0-96.442182-64.232727-181.899636-150.574545-246.272l32.302545-106.914909-117.899636 64.232727c-43.008-10.705455-86.202182-21.410909-129.070545-21.410909-204.567273 0-365.707636 139.031273-365.707637 310.365091 0 171.008 161.140364 310.411636 365.707637 310.411636 193.256727 0 365.242182-139.403636 365.242181-310.411636z m-483.746909 53.527273c32.488727 0 53.806545 21.178182 53.806546 42.821818 0 21.271273-21.317818 42.728727-53.806546 42.728727-21.410909 0-43.054545-21.410909-43.054545-42.775273 0-21.597091 21.643636-42.821818 43.054545-42.821818z m236.450909 0c32.256 0 53.853091 21.178182 53.853091 42.821818 0 21.271273-21.597091 42.728727-53.806545 42.728727-21.317818 0-42.728727-21.410909-42.728727-42.775273 0-21.597091 21.410909-42.821818 42.728727-42.821818z"  horiz-adv-x="1303" />

    
    <glyph glyph-name="erweima" unicode="&#58882;" d="M62.996776 411.938306l423.162696 0L486.159472 835.099978 62.996776 835.099978 62.996776 411.938306zM168.788218 729.30956l211.580836 0 0-211.580836L168.788218 517.728724 168.788218 729.30956zM539.055193 835.099978l0-423.162696 423.162696 0L962.217888 835.099978 539.055193 835.099978zM856.426447 517.728724L644.845611 517.728724 644.845611 729.30956l211.580836 0L856.426447 517.728724zM221.682915 570.623421l105.790418 0L327.473333 676.414863 221.682915 676.414863 221.682915 570.623421zM62.996776-64.12011099999995l423.162696 0L486.159472 359.04258500000003 62.996776 359.04258500000003 62.996776-64.12011099999995zM168.788218 253.252167l211.580836 0 0-211.580836L168.788218 41.67133100000001 168.788218 253.252167zM803.531749 676.414863L697.740308 676.414863l0-105.790418 105.790418 0L803.530726 676.414863zM539.055193-64.12011099999995l105.790418 0L644.845611 41.67030799999998 539.055193 41.67030799999998 539.055193-64.12011099999995zM644.845611 253.252167l0-211.580836 105.790418 0L750.636029 253.252167 644.845611 253.252167zM856.426447 41.67030799999998L750.636029 41.67030799999998 750.636029-64.12011099999995l211.580836 0L962.216865 147.46174900000005 856.426447 147.46174900000005 856.426447 41.67030799999998zM856.426447 253.252167l105.790418 0L962.216865 359.04258500000003 856.426447 359.04258500000003 856.426447 253.252167zM539.055193 359.04258500000003l0-105.790418 105.790418 0L644.845611 359.04258500000003 539.055193 359.04258500000003zM221.682915 94.56602799999996l105.790418 0L327.473333 200.356446 221.682915 200.356446 221.682915 94.56602799999996z"  horiz-adv-x="1024" />

    
    <glyph glyph-name="QQkongjian" unicode="&#59003;" d="M687.5136 464.4864h-358.4l241.3568-36.5568-256-204.8h380.3136l-226.7136 43.8272 219.4432 197.5296zM870.4 896H153.6C73.1136 896 0 822.8864 0 742.4v-709.5296C0-54.8864 73.1136-128 153.6-128h709.5296c87.7568 0 160.9728 65.8432 160.9728 146.3296V749.6704C1024 830.1568 950.8864 896 870.4 896zM702.1568 332.8l43.9296-277.9136c-7.2704-7.2704-7.2704-7.2704-14.6432-7.2704L504.7296 186.4704 277.9136 47.5136c-14.6432 0-21.9136 0-21.9136 7.2704l36.5568 270.6432L109.6704 486.4v7.2704h263.2704l124.3136 241.3568H512l131.6864-241.3568h234.0864c7.2704 0 7.2704 0 7.2704-7.2704L702.1568 332.8z"  horiz-adv-x="1024" />

    
    <glyph glyph-name="mima" unicode="&#58934;" d="M773.188174 537.098272h-112.095214v41.73406c0 70.361154-19.313801 188.091537-149.45907 188.091537-135.124845 0-149.459069-131.413881-149.459069-188.091537v-41.73406H250.079607v41.73406c0 184.333136 102.745432 303.28956 261.554283 303.28956 158.814933 0 261.554284-118.956424 261.554284-303.28956v-41.73406zM586.366466 230.744824c0 42.347081-33.648025 76.52785-74.732576 76.527851-41.083334 0-74.726494-34.180769-74.726494-76.527851 0-28.668448 14.980085-53.004397 37.401561-65.994598v-87.222872c0-21.152863 16.785091-38.632467 37.362639-38.632467 20.582413 0 37.36872 17.479604 37.36872 38.632467v87.222872c22.378905 12.990201 37.326149 37.326149 37.32615 65.994598z m298.916923 153.173683v-382.99928c0-63.499944-50.467173-115.198023-112.095215-115.198024H250.079607c-61.585471 0-112.095214 51.698079-112.095215 115.198024V383.918507c0 63.467104 50.472038 115.202889 112.095215 115.202889h523.108567c61.628042 0 112.095214-51.735785 112.095215-115.202889z m0 0"  horiz-adv-x="1024" />

    
    <glyph glyph-name="wodeshebeiafter" unicode="&#58933;" d="M738.03129406 854.06508175c-10.00138432 4.0005535-22.00304598 2.00027733-26.00359947-8.00110816-4.0005535-10.00138432-2.00027733-22.00304598 8.00110698-26.00360062C874.05012689 742.04957223 972.06369626 584.02769459 972.06369626 408.00332331c0-248.0343412-196.02713993-450.06231194-440.06092645-460.06369628v300.04154131 2.00027616c78.01080073 10.00138432 140.01938632 78.01080073 140.01938515 158.02187881 0 88.01218505-72.00996991 160.02215496-160.02215496 160.02215498s-160.02215496-72.00996991-160.02215496-160.02215498c0-82.01135423 62.00858559-148.02049331 140.01938515-158.02187881v-302.04181747c-244.03378653 10.00138432-440.06092763 212.02935624-440.06092645 460.06369628C51.93630374 586.02797076 151.95015044 744.04984956 307.97175192 822.06065028c10.00138432 4.0005535 14.00193897 16.00221515 10.00138433 26.00360065-4.0005535 10.00138432-16.00221515 14.00193897-26.00359948 10.00138432-170.02354046-84.01163156-280.03877149-256.03544818-280.03877265-450.06231194 0-276.03821799 224.0310179-500.06923588 500.06923588-500.06923589s500.06923588 224.0310179 500.06923588 500.06923589c0 190.0263091-108.01495488 362.05012689-274.03794182 446.06175844zM391.98338347 408.00332331c0 66.00913909 54.00747742 120.01661653 120.01661653 120.01661651s120.01661653-54.00747742 120.01661653-120.01661651-54.00747742-120.01661653-120.01661653-120.01661652-120.01661653 54.00747742-120.01661653 120.01661652zM630.01633919 123.96399714999995c-10.00138432-4.0005535-14.00193897-16.00221515-10.00138431-26.00359945 4.0005535-10.00138432 16.00221515-14.00193897 26.00360062-10.0013855C770.03572551 141.96648961999995 852.04707974 263.98338347000004 852.04707974 400.00221515c0 130.01800083-72.00996991 246.03406387-186.0257556 304.04209595-10.00138432 4.0005535-22.00304598 2.00027733-26.00359946-8.00110816-4.0005535-10.00138432-2.00027733-22.00304598 8.00110698-26.00360064 100.01384671-50.00692394 164.02270964-154.02132414 164.02270964-268.03710983 0-122.01689385-72.00996991-230.03184872-182.02520211-278.03849532zM379.98172183 670.0396023000001c10.00138432 4.0005535 14.00193897 16.00221515 10.00138432 26.00360064-4.0005535 10.00138432-16.00221515 14.00193897-26.00359946 10.00138432-116.01606303-56.00775477-190.0263091-174.02409395-190.02631027-306.04237211 0-134.0185555 78.01080073-254.03517203 198.02741726-310.04292562 10.00138432-4.0005535 22.00304598 0 26.00360063 10.00138432 4.0005535 10.00138432 0 22.00304598-10.00138432 26.00360064-106.01467753 48.00664661-176.02437127 154.02132414-176.02437129 272.03766448 0 118.01633919 66.00913909 222.03074055 168.02326313 272.03766333z"  horiz-adv-x="1024" />

    
    <glyph glyph-name="FacebookIcon" unicode="&#58992;" d="M932.305455 896H91.694545A135.354182 135.354182 0 0 1 0 804.305455v-840.61091A135.354182 135.354182 0 0 1 91.694545-128h437.992728v388.654545H388.189091v140.567273h141.498182V509.672727a205.963636 205.963636 0 0 0 217.832727 210.385455 586.100364 586.100364 0 0 0 100.538182-7.912727v-133.585455h-100.072727a65.163636 65.163636 0 0 1-76.334546-76.8v-100.538182h178.269091l-23.272727-140.567273h-154.996364V-128h260.654546A135.354182 135.354182 0 0 1 1024-36.305455V804.305455A135.354182 135.354182 0 0 1 932.305455 896z"  horiz-adv-x="1024" />

    
    <glyph glyph-name="pengyouquan" unicode="&#58988;" d="M779.127467 896C926.651733 896 1024 800.6144 1024 651.127467v-534.254934C1024-32.631467 926.651733-128 779.127467-128H244.872533C97.348267-128 0-32.6144 0 116.872533V651.127467C0 800.631467 97.348267 896 244.872533 896h534.254934zM510.634667 640c-10.3936 0-20.599467-0.631467-30.634667-1.8432A266.103467 266.103467 0 0 1 409.6 620.032s182.869333-183.688533 187.733333-190.5152V625.408A265.745067 265.745067 0 0 1 510.634667 640z m194.816-80.6912c-7.338667 7.389867-15.018667 14.216533-22.954667 20.548267a269.4144 269.4144 0 0 1-62.395733 37.376s1.365333-259.089067 0-267.3664l136.533333 137.489066a271.479467 271.479467 0 0 1-51.2 71.953067h0.017067zM765.0816 469.333333s-183.637333-182.869333-190.498133-187.733333h195.8912A265.096533 265.096533 0 0 1 785.066667 368.315733c0 10.376533-0.6656 20.599467-1.877334 30.651734A264.635733 264.635733 0 0 1 765.098667 469.333333zM494.933333 258.816l137.489067-136.4992a270.557867 270.557867 0 0 1 71.9872 51.2c7.355733 7.287467 14.165333 15.0016 20.514133 22.9376a269.789867 269.789867 0 0 1 37.376 62.395733s-259.072-1.365333-267.3664-0.034133z m-68.266666 45.533867v-195.8912a264.994133 264.994133 0 0 1 86.7328-14.592c10.3424 0 20.5824 0.6656 30.600533 1.8432A266.052267 266.052267 0 0 1 614.4 113.834667c0.017067 0-182.869333 183.637333-187.733333 190.498133zM403.831467 384l-136.448-137.454933c2.56-5.2736 5.307733-10.410667 8.209066-15.445334a268.8512 268.8512 0 0 1 42.973867-56.576c7.304533-7.389867 15.018667-14.1824 22.9376-20.514133a267.605333 267.605333 0 0 1 62.4128-37.376s-1.399467 259.072-0.085333 267.3664z m-155.460267 51.626667A265.949867 265.949867 0 0 1 238.933333 365.533867c0-10.3424 0.6656-20.599467 1.860267-30.634667A262.656 262.656 0 0 1 258.952533 264.533333s183.6032 182.8864 190.464 187.733334H253.508267c-1.877333-5.4272-3.584-11.025067-5.12-16.64z m127.7952 167.714133a270.4384 270.4384 0 0 1-56.541867-42.939733 269.994667 269.994667 0 0 1-20.5312-22.9376 269.585067 269.585067 0 0 1-37.410133-62.446934s259.106133 1.365333 267.383467 0.0512l-137.454934 136.482134c-5.2224-2.594133-10.3936-5.307733-15.445333-8.192z"  horiz-adv-x="1024" />

    
    <glyph glyph-name="xueyuanyueke" unicode="&#58924;" d="M564.053333-20.48c-11.946667 15.36-20.48 30.72-26.453333 45.226667-5.973333 14.506667-11.093333 29.013333-13.653333 42.666666-4.266667 17.92-7.68 36.693333-9.386667 56.32-1.706667 18.773333-0.853333 38.4 2.56 58.026667s9.386667 40.106667 17.92 61.44 22.186667 43.52 39.253333 65.706667c5.12 6.826667 9.386667 13.653333 11.093334 20.48 2.56 6.826667 4.266667 13.653333 6.826666 19.626666 1.706667 6.826667 4.266667 12.8 6.826667 18.773334 2.56 5.973333 7.68 11.946667 14.506667 17.066666 5.12 4.266667 10.24 11.093333 14.506666 19.626667 4.266667 8.533333 8.533333 17.066667 11.093334 25.6 2.56 9.386667 5.973333 20.48 9.386666 33.28 6.826667 2.56 13.653333 5.973333 18.773334 11.093333 5.12 4.266667 10.24 11.093333 15.36 19.626667 4.266667 8.533333 7.68 19.626667 9.386666 34.133333 0.853333 11.093333 0.853333 20.48 0 28.16-1.706667 7.68-4.266667 13.653333-6.826666 17.92-2.56 5.12-6.826667 10.24-11.093334 13.653334 0.853333 27.306667-0.853333 54.613333-4.266666 81.92-3.413333 23.04-9.386667 48.64-17.92 75.093333-7.68 26.453333-20.48 50.346667-38.4 72.533333-7.68 8.533333-17.92 18.773333-29.866667 28.16-11.946667 9.386667-26.453333 17.92-41.813333 25.6-15.36 7.68-32.426667 13.653333-51.2 17.92-17.066667 4.266667-36.693333 6.826667-56.32 6.826667-15.36 0-30.72-1.706667-47.786667-4.266667-17.066667-2.56-33.28-7.68-50.346667-14.506666-17.066667-6.826667-32.426667-16.213333-48.64-28.16-15.36-11.946667-29.866667-27.306667-43.52-46.933334-14.506667-19.626667-24.746667-41.813333-31.573333-66.56-6.826667-24.746667-11.093333-48.64-14.506667-69.973333-3.413333-25.6-4.266667-51.2-4.266666-76.8-5.12-5.973333-9.386667-13.653333-12.8-21.333333-3.413333-6.826667-5.12-15.36-5.973334-24.746667-0.853333-10.24 0-20.48 4.266667-31.573333 3.413333-11.946667 7.68-21.333333 12.8-27.306667 4.266667-5.973333 8.533333-10.24 12.8-13.653333 4.266667-3.413333 9.386667-5.12 14.506667-6.826667 2.56-11.946667 5.12-23.04 9.386666-33.28 3.413333-8.533333 6.826667-17.066667 11.093334-26.453333 4.266667-8.533333 10.24-16.213333 16.213333-20.48 10.24-9.386667 20.48-17.92 29.866667-27.306667s14.506667-21.333333 16.213333-37.546667c0.853333-10.24 0.853333-20.48 0.853333-29.013333 0-9.386667-1.706667-17.92-4.266666-26.453333-3.413333-8.533333-8.533333-16.213333-16.213334-24.746667-7.68-7.68-18.773333-16.213333-33.28-25.6-17.92-11.093333-39.253333-20.48-63.146666-26.453333-23.04-5.973333-46.08-13.653333-69.12-21.333334-21.333333-6.826667-40.106667-17.066667-57.173334-29.866666-16.213333-13.653333-25.6-32.426667-29.866666-57.173334-5.973333-44.373333-6.826667-81.066667-3.413334-108.373333 4.266667-27.306667 9.386667-44.373333 16.213334-50.346667 4.266667-3.413333 13.653333-6.826667 29.013333-10.24 15.36-3.413333 34.133333-7.68 57.173333-10.24 22.186667-3.413333 46.933333-6.826667 74.24-9.386666 27.306667-2.56 54.613333-5.973333 81.92-7.68 27.306667-1.706667 54.613333-4.266667 81.066667-5.973334 26.453333-1.706667 49.493333-2.56 69.12-2.56 38.4 0 73.386667 0.853333 103.253333 2.56 29.866667 1.706667 55.466667 4.266667 75.946667 5.973334 23.893333 2.56 45.226667 6.826667 64 10.24-27.306667 13.653333-50.346667 27.306667-68.266667 42.666666-19.626667 14.506667-34.986667 29.013333-46.08 45.226667zM781.653333 349.013333c-120.32 0-217.6-97.28-217.6-217.6s97.28-217.6 217.6-217.6 217.6 97.28 217.6 217.6-97.28 217.6-217.6 217.6z m152.746667-225.28c0-14.506667-11.946667-26.453333-26.453333-26.453333H780.8c-14.506667 0-26.453333 11.946667-26.453333 26.453333V250.88c0 14.506667 11.946667 26.453333 26.453333 26.453333s26.453333-11.946667 26.453333-26.453333v-100.693333h100.693334c14.506667 0 26.453333-11.946667 26.453333-26.453334z"  horiz-adv-x="1024" />

    
    <glyph glyph-name="shexiang1" unicode="&#58893;" d="M1007.6 647.2c-8.3 5.1-18.6 5.6-27.4 1.2L765.9 541.2V567c0 46.6-37.8 84.4-84.4 84.4H92.3C45.7 651.4 8 613.6 7.9 567v-397.7c0-46.6 37.8-84.4 84.4-84.4h589.1c46.6 0 84.4 37.8 84.4 84.4V195l214.4-107.2c8.7-4.4 19.1-3.9 27.4 1.2 8.3 5.1 13.3 14.2 13.4 23.9V623.3c0 9.7-5.1 18.8-13.4 23.9z m-298-477.9c0-15.5-12.6-28.1-28.1-28.1H92.3c-15.5 0-28.1 12.6-28.1 28.1V567c0 15.5 12.6 28.1 28.1 28.1h589.1c15.5 0 28.1-12.6 28.1-28.1v-397.7z m255.1-10.8L765.9 258V478.3l198.9 99.4-0.1-419.2z m0 0"  horiz-adv-x="1024" />

    
    <glyph glyph-name="guanbi" unicode="&#60266;" d="M548.992 392.256L885.44 728.672a31.968 31.968 0 1 1-45.248 45.248L503.744 437.504 167.328 773.92a31.968 31.968 0 1 1-45.248-45.248l336.416-336.416L122.08 55.84a31.968 31.968 0 1 1 45.248-45.248l336.416 336.416L840.16 10.56a31.968 31.968 0 1 1 45.248 45.248L548.992 392.256z"  horiz-adv-x="1024" />

    
    <glyph glyph-name="yuyue" unicode="&#58925;" d="M450.048 64H108.544c-24.576 0-44.544 19.968-44.544 44.544V512H896V723.456c0 59.904-48.64 108.544-108.544 108.544h-83.456V896H640v-64H256V896H192v-64H108.544C48.64 832 0 783.36 0 723.456v-615.424C0 48.64 48.64 0 108.544 0h341.504c17.92 0 32.256 14.336 32.256 32.256s-14.336 31.744-32.256 31.744zM160.256 415.744H384v-64H160.256V415.744z m0-192H384v-64H160.256v64z m640 96.256h-64v-160.256H896v64h-96.256v96.256z m148.992 53.248c-48.64 48.64-112.64 74.752-181.248 74.752s-132.608-26.624-181.248-74.752c-48.64-48.64-74.752-112.64-74.752-181.248s26.624-132.608 74.752-181.248c48.64-48.64 112.64-74.752 181.248-74.752s132.608 26.624 181.248 74.752c48.64 48.64 74.752 112.64 74.752 181.248s-26.624 132.608-74.752 181.248zM768 0c-105.984 0-192 86.016-192 192S662.016 384 768 384s192-86.016 192-192S873.984 0 768 0z"  horiz-adv-x="1024" />

    
    <glyph glyph-name="Shapex" unicode="&#58936;" d="M1001.642667-14.250667l-267.093334 268.288c47.701333 67.072 76.288 148.48 76.288 234.752C810.837333 713.984 629.589333 896 405.504 896 181.162667 896 0 713.984 0 488.789333 0 263.68 181.248 81.578667 405.418667 81.578667a401.408 401.408 0 0 1 233.728 76.629333l267.093333-268.202667c23.893333-23.978667 66.816-23.978667 95.402667 0 28.586667 28.672 28.586667 66.986667 0 95.744zM405.418667 177.493333a310.101333 310.101333 0 0 0-310.016 311.466667 310.101333 310.101333 0 1 0 620.032 0 310.101333 310.101333 0 0 0-310.016-311.466667z"  horiz-adv-x="1024" />

    
    <glyph glyph-name="shezhi" unicode="&#58951;" d="M994.86407 506.52a98.848 98.848 0 0 1-68.88 29.336c-5.08 0.536-23.496 2.392-49.968 4.928a391.984 391.984 0 0 1-45.008 79.048c12.264 26.624 20.152 43.872 20.088 43.992 27.464 47.64 11.168 108.752-36.384 136.312l-91.568 53.16A99.856 99.856 0 0 1 673.08807 866.8c-35.544 0-68.672-19.072-84.824-47.216 0 0-11.608-16.136-29.824-41.632a393.76 393.76 0 0 1-90.944-0.144c-17.008 24.088-28.176 39.744-28.328 39.744a100.128 100.128 0 0 1-86.552 49.936c-17.344 0-34.504-4.584-49.656-13.248l-91.84-52.76c-47.736-27.464-64.256-88.616-38.2-133.672 0 0 8.968-19.904 23.008-50.648a358.296 358.296 0 0 1-21.056-31.96 372.144 372.144 0 0 1-20.952-42.36c-32.472-2.952-53.8-5.008-54.04-5.136-54.768-0.08-99.464-44.728-99.632-99.648L0.00007 332.184c-0.064-55.04 44.608-99.928 96.616-99.928h0.04s23.808-2.392 60.368-5.848a391.424 391.424 0 0 1 40.2-69.064c-14.728-31.84-24.352-53.008-24.28-53.128a99.16 99.16 0 0 1-10.04-75.6 99.192 99.192 0 0 1 46.4-60.744l91.6-53.16a100.136 100.136 0 0 1 50.056-13.496c35.512 0 68.648 19.072 84.768 47.216 0 0 14.144 19.576 35.632 49.784 26.56-2.888 53.336-3.168 79.928-0.68 20.032-28.392 33.376-47.072 33.496-47.072a100.224 100.224 0 0 1 86.584-49.968c17.368 0 34.56 4.6 49.664 13.288l91.808 52.704a99.256 99.256 0 0 1 46.712 60.624 99.088 99.088 0 0 1-9.04 74.312c-2.208 4.928-10.656 23.64-22.888 50.448a374.088 374.088 0 0 1 26.384 39.216 362.928 362.928 0 0 1 17.312 34.144c31.728 2.896 52.552 4.896 52.704 5.016 54.92 0.096 99.632 44.776 99.72 99.632l0.256 105.936a99.36 99.36 0 0 1-29.136 70.704zM962.60007 330.04c-0.032-21.312-17.432-38.656-41.816-38.808-0.064 0-29.696-2.864-73.272-6.776a30.576 30.576 0 0 1-25.64-19.104c-6.832-17.072-13.432-30.92-20.744-43.576-8.896-15.248-19.552-30.296-32.592-45.928a30.544 30.544 0 0 1-4.328-32.296c18.624-40.648 31.072-68.408 31.104-68.472 0.416-0.92 0.888-1.824 1.4-2.72a38.456 38.456 0 0 0 3.824-29.336 38.616 38.616 0 0 0-18.144-23.52l-91.84-52.704c-5.84-3.376-12.48-5.168-19.184-5.168-13.88 0-26.776 7.464-35.312 21.992-0.032 0.032-18.504 25.936-45.24 63.992a30.656 30.656 0 0 1-29.376 12.688 328.48 328.48 0 0 0-99.416 0.864 30.656 30.656 0 0 1-29.784-12.504c-27.168-38.296-46.024-64.416-47.728-67.008-10.264-17.76-35.008-24.48-52.936-14.056l-91.6 53.16c-8.936 5.192-15.328 13.544-17.984 23.544s-1.272 20.448 5.312 32.088c0.032 0.064 13.368 29.368 33.144 71.992a30.528 30.528 0 0 1-3.912 32.024 330.784 330.784 0 0 0-50.056 85.928 30.536 30.536 0 0 1-25.576 19.216c-46.376 4.328-78.08 7.52-81.112 7.672a38.856 38.856 0 0 0-38.664 38.856l0.256 105.816c0.056 21.336 17.416 38.68 38.68 38.68 0.984 0 2.192 0.064 3.176 0.152 0.056 0 30.368 2.952 74.888 6.928a30.544 30.544 0 0 1 25.92 19.784c7.152 19.168 14.888 35.88 23.728 51.072 7.24 12.504 16 25.104 27.552 39.696a30.528 30.528 0 0 1 3.832 31.712c-18.232 39.808-30.488 66.976-31.856 69.68a38.808 38.808 0 0 0 14.296 52.888l91.792 52.728c18.072 10.352 41.888 4.712 54.512-16.808 0.032-0.032 16.416-23.048 40.472-57.144a30.56 30.56 0 0 1 30.176-12.504c35.28 6.072 72.528 6.192 109.176 0.208a30.64 30.64 0 0 1 29.824 12.464c24.024 33.832 40.264 56.352 41.96 58.944 10.272 17.712 34.92 24.512 52.92 14.056l91.6-53.168a38.384 38.384 0 0 0 17.992-23.544c2.656-10.016 1.256-20.464-5.312-32.072 0-0.032-11.512-25.296-28.944-62.96a30.512 30.512 0 0 1 3.968-32.056c23.464-29.016 41.632-60.952 54.024-94.944a30.512 30.512 0 0 1 25.84-19.968c41.496-3.936 69.512-6.808 69.568-6.808 11.288-0.952 22.328-3.496 30.392-11.52a38.528 38.528 0 0 0 11.312-27.432l-0.272-105.92zM603.66407 541.984a177.816 177.816 0 0 1-89.128 24.024c-63.24 0-122.216-33.936-153.944-88.584-49.184-84.832-20.224-193.856 64.56-243.072a177.76 177.76 0 0 1 89.12-24.032c63.24 0 122.224 33.936 153.952 88.584a176.6 176.6 0 0 1 18.056 134.904 176.568 176.568 0 0 1-82.616 108.176z m11.672-212.4a117.168 117.168 0 0 0-101.064-58.144c-20.448 0-40.648 5.44-58.44 15.792-55.632 32.296-74.648 103.832-42.352 159.504a117.16 117.16 0 0 0 101.056 58.144 116.26 116.26 0 0 0 58.448-15.792 115.944 115.944 0 0 0 54.224-70.976c8-30.112 3.8-61.576-11.872-88.528z"  horiz-adv-x="1024" />

    
    <glyph glyph-name="DD" unicode="&#59014;" d="M932.72493853 901.81530851H91.27506147c-53.39970333 0-97.09036999-43.69066667-97.09036998-97.09036998v-841.44987706c0-53.39970333 43.69066667-97.09036999 97.09036998-97.09036998h841.44987706c53.39970333 0 97.09036999 43.69066667 97.09036998 97.09036998V804.72493853c0 53.39970333-43.69066667 97.09036999-97.09036998 97.09036998zM769.2894811 460.05412295c-1.61817259-4.8545189-3.23634517-11.32721038-8.09086407-21.0362459-22.65441963-50.16335815-82.52681443-147.25372814-82.52681444-147.25372928l-17.79990186-30.7452837h84.14498816L583.19960519 44.18370332999996l37.21797518 147.25372928h-66.34508629l22.65441963 97.09036998c-19.41807445-4.8545189-40.45432149-11.32721038-66.3450863-19.41807445 0 0-35.59980259-21.03624704-101.94488888 40.45432149 0 0-45.30883925 40.45432149-19.41807446 50.16335816 11.32721038 4.8545189 53.39970333 9.70903666 87.38133334 14.56355555 45.30883925 6.47269149 72.81777778 9.70903666 72.81777777 9.70903666s-140.78103666-1.61817259-173.14449408 3.23634517c-32.36345629 4.8545189-74.43595037 61.49056739-84.14498702 110.0357541 0 0-14.56355555 27.50893853 29.12711111 14.56355556 43.69066667-12.94538297 224.92602482-50.16335815 224.92602482-50.16335816s-236.25323406 72.81777778-250.81679076 90.61767851c-16.18172814 17.79990073-45.30883925 97.09036999-42.07249408 145.63555556 0 0 1.61817259 12.94538297 14.56355556 8.09086407 0 0 174.76266667-80.90864185 292.88928484-124.59930852 119.74478962-42.07249408 223.30785223-64.72691371 208.74429553-121.36296334z"  horiz-adv-x="1024" />

    
    <glyph glyph-name="qq3" unicode="&#59015;" d="M512 901.81530851H91.27506147c-53.39970333 0-97.09036999-43.69066667-97.09036998-97.09036998v-841.44987706c0-53.39970333 43.69066667-97.09036999 97.09036998-97.09036998h841.44987706c53.39970333 0 97.09036999 43.69066667 97.09036998 97.09036998V804.72493853c0 53.39970333-43.69066667 97.09036999-97.09036998 97.09036998H512zM753.10775296 241.60078962c-8.09086407-11.32721038-32.36345629 1.61817259-50.16335815 38.83614891-4.8545189-16.18172814-16.18172814-43.69066667-40.45432036-76.0541241 42.07249408-9.70903666 53.39970333-50.16335815 40.45432036-72.81777777-9.70903666-16.18172814-32.36345629-29.12711111-71.19960519-29.12711111-69.58143261 0-100.3267163 19.41807445-113.27209813 32.36345742-1.61817259 3.23634517-6.47269149 4.8545189-12.94538298 4.85451776-4.8545189 0-8.09086407-1.61817259-12.94538296-4.85451776-12.94538297-12.94538297-43.69066667-32.36345629-113.27209814-32.36345742-38.83614777 0-61.49056739 12.94538297-71.19960519 29.12711111-14.56355555 22.65441963-1.61817259 63.10874112 40.45432149 72.81777777-24.27259221 33.98163001-35.59980259 59.87239481-40.45432149 76.0541241-16.18172814-37.21797518-40.45432149-50.16335815-50.16335815-38.83614891-6.47269149 9.70903666-9.70903666 30.7452837-8.09086407 45.30884039 4.8545189 55.01787705 40.45432149 101.94488889 63.10874112 126.2174811-3.23634517 6.47269149-9.70903666 46.92701184 17.79990073 76.05412295v1.61817373c0 110.03575296 77.67229667 187.70804963 176.38083925 187.7080485 97.09036999 0 176.38083925-79.29046926 176.38084039-187.7080485v-1.61817373c27.50893853-27.50893853 21.03624704-67.96325888 17.79990073-76.05412295 21.03624704-24.27259221 58.25422222-71.19960519 63.10874112-126.2174811-1.61817259-14.56355555-3.23634517-35.59980259-11.32721038-45.30884039z"  horiz-adv-x="1024" />

    
    <glyph glyph-name="dingdantixingdingdanyuyue" unicode="&#58944;" d="M235.585205 192.423333h479.442894c27.743531 0 26.91267 42.391971 0 42.121038H235.585205c-25.774752 0-26.966857-41.344364 0-42.121038m253.033284 168.484151c25.359321 0 26.930732 42.121038 0 42.121038H222.255305c-29.152382 0-28.484081-42.121038 0-42.121038h266.363184z m332.940434-56.155363v-365.018891H302.162454V80.130669c0 12.444852-14.811 28.06865-26.641737 28.06865H142.348156V810.168451h199.767872c18.369252 0 18.369252 42.121038 0 42.121038H129.036318c-11.812675 0-26.641737-14.449756-26.641737-27.021043v-742.085266c0-5.129663 1.607535-9.753585 4.352989-13.49246 0-0.018062 0.054187-0.054187 0.054187-0.090311 0.704426-0.993421 1.4811-1.89653 2.330023-2.727391l157.664897-162.758436c4.425238-4.569735 10.439948-6.881696 16.418535-6.466266h552.269663c11.866862 0 25.991498 15.569612 25.991498 28.032526V304.752121c-0.216746 18.531812-38.869843 18.513749-39.91745 0M262.208879-32.19812l-93.218986 98.276401h93.218986v-98.276401zM832.269804 642.280352h-123.021608V771.280546c0 8.850475-5.689591 16.003104-14.070449 16.003105s-14.07045-7.170691-14.07045-16.003105v-143.576385c0-7.622246 3.937558-12.824158 10.710882-14.431693a14.377507 14.377507 0 0 1 4.244615-0.632177h136.20701c8.380858 0 15.190306 5.996649 15.190306 14.829061-0.018062 8.814351-6.809447 14.811-15.190306 14.811zM710.115182 870.387808c116.808213 0 211.490237-99.811688 211.490237-222.941668s-94.682024-222.941668-211.490237-222.941669-211.490237 99.82975-211.490237 222.941669c0 123.129981 94.682024 222.941668 211.490237 222.941668m0-32.692572c-24.383963 0-48.009313-5.02129-70.225813-14.937435a179.411779 179.411779 0 0 1-57.36553-40.784436 190.411656 190.411656 0 0 1-38.689221-60.490289c-9.410403-23.426666-14.160761-48.334433-14.160761-74.036936s4.768419-50.610269 14.160761-74.036936a190.61034 190.61034 0 0 1 38.689221-60.49029 179.899458 179.899458 0 0 1 57.36553-40.784435 171.319916 171.319916 0 0 1 70.225813-14.937435c24.383963 0 48.009313 5.02129 70.225812 14.937435a179.682712 179.682712 0 0 1 57.365531 40.784435 190.411656 190.411656 0 0 1 38.689221 60.49029c9.410403 23.444729 14.178823 48.334433 14.178822 74.036936s-4.768419 50.610269-14.178822 74.036936c-9.085284 22.649992-22.108126 43.006085-38.689221 60.490289s-35.889581 31.211472-57.365531 40.784436a171.247667 171.247667 0 0 1-70.225812 14.937435"  horiz-adv-x="1024" />

    
    <glyph glyph-name="kefu" unicode="&#58888;" d="M509.696474 89.311724h15.161591a126.346597 126.346597 0 0 1 104.867676 86.547419 6.949063 6.949063 0 0 1-3.790398 8.844262 6.949063 6.949063 0 0 1-9.475995 0s-19.583723-31.586649-94.759948-41.694377a245.744131 245.744131 0 0 0-32.218382 0 121.924466 121.924466 0 0 0-76.439691 20.215456 6.949063 6.949063 0 0 1-10.739461-9.475995 126.346597 126.346597 0 0 1 107.394608-63.173299z m0 0M913.373851 554.267201A423.892832 423.892832 0 0 1 78.854578 538.473876a79.598356 79.598356 0 0 1-63.173298-78.33489v-157.933246a79.598356 79.598356 0 0 1 78.966623-80.230089 78.33489 78.33489 0 0 1 63.173298 29.69145 367.668597 367.668597 0 0 1 196.468959-206.576685 42.32611 42.32611 0 0 0 3.790397 6.317329s0 3.158665 4.422131 3.158665h3.790398a356.297403 356.297403 0 0 0-114.34367 205.944953 96.023414 96.023414 0 0 0 72.01756 105.499409C394.721071 381.172363 461.053034 393.17529 529.911929 405.80995a118.765801 118.765801 0 0 1 91.601283 71.385827 185.097764 185.097764 0 0 1 13.266393 55.592502 8.212529 8.212529 0 0 0 8.212528 6.949063 8.844262 8.844262 0 0 0 6.949063-3.790398A488.96133 488.96133 0 0 0 740.279013 317.999065c8.844262-104.867675 3.790398-176.885236-76.439691-252.693194a6.31733 6.31733 0 0 1 0-4.422131 6.31733 6.31733 0 0 1 0-5.053864h8.212529a367.036864 367.036864 0 0 1 172.463104 209.103618 81.493555 81.493555 0 0 1 51.170372-34.113581c-34.113581-154.774581-171.831372-252.693194-343.03101-265.959586a70.122361 70.122361 0 0 1-63.173299 43.589575 68.227162 68.227162 0 1 1 66.331964-89.07435c197.732424 15.793325 356.297403 133.927393 389.779251 315.866492a80.861822 80.861822 0 0 1 49.906906 74.544492V473.405379a80.861822 80.861822 0 0 1-81.493555 80.861822zM840.092824 507.51896A364.509932 364.509932 0 0 1 155.926003 507.51896l-8.844262 8.844262a355.66567 355.66567 0 0 0 701.223612 0 79.598356 79.598356 0 0 1-8.212529-12.63466z m0 0M352.394961 45.090416z m0 0"  horiz-adv-x="1024" />

    
    <glyph glyph-name="jianshenjulebu" unicode="&#59076;" d="M715.953231 572.002462c21.700923-38.478769 23.748923-82.550154 13.252923-161.142154-0.925538-7.030154-5.789538-18.432-12.032-28.041846-84.539077 60.652308-185.028923 53.070769-285.892923-27.490462-26.072615-20.814769-35.899077-18.392615-79.419077 15.025231-9.747692 7.483077-10.476308 8.034462-14.434462 10.988307-36.883692 27.510154-64.945231 40.408615-101.474461 37.356308-64.039385-5.336615-126.759385-26.427077-160.295385-55.808-40.034462-24.753231-47.143385-95.074462-45.686154-220.16 1.339077-116.420923 11.618462-198.892308 42.043077-225.398154 48.541538-42.279385 169.826462-51.298462 211.219693-2.658461 15.891692 14.848 48.600615 38.675692 66.56 47.950769 11.913846 6.144 54.153846 8.841846 62.247384 5.356308 214.941538-92.947692 405.208615-89.442462 587.362462 37.494154a142.276923 142.276923 0 0 1 22.724923 19.298461c12.386462 12.701538 24.142769 28.494769 34.796307 47.812923 6.636308 12.012308 12.740923 25.206154 18.215385 39.581539 30.464 80.049231-9.728 354.402462-76.721231 520.014769a1205.996308 1205.996308 0 0 1-57.954461 123.313231 862.129231 862.129231 0 0 1-19.554462 34.284307 351.586462 351.586462 0 0 1-8.270769 13.292308 73.235692 73.235692 0 0 1-20.676923 20.814769c11.106462-7.384615-22.449231 16.541538-36.706462 24.064-5.947077 3.150769-12.209231 6.104615-18.904615 8.841846C790.252308 875.657846 734.109538 886.153846 682.318769 886.153846c-53.582769 0-97.890462-11.244308-131.643077-34.264615-18.491077-12.583385-32.787692-27.844923-41.747692-44.465231l-60.396308-84.932923a72.861538 72.861538 0 0 1 14.099693-99.249231l112.088615-89.147077a73.334154 73.334154 0 0 1 96 4.056616l3.623385 3.426461 2.855384 4.056616c10.929231 15.556923 20.519385 27.136 28.356923 34.56 5.454769-1.043692 8.625231-5.041231 10.397539-8.192z m-173.095385 113.230769L593.723077 756.775385l1.831385 3.899077c0.866462 1.772308 4.253538 5.572923 10.574769 9.865846 15.753846 10.752 40.979692 17.152 76.189538 17.152 39.286154 0 82.786462-8.132923 116.696616-22.016 3.702154-1.516308 7.049846-3.091692 10.200615-4.745846 4.588308-2.441846 8.585846-4.962462 13.292308-8.310154-0.118154 0.078769 5.651692-4.174769 10.299077-7.483077a764.140308 764.140308 0 0 0 21.070769-36.529231 1107.692308 1107.692308 0 0 0 53.248-113.270154c58.545231-144.738462 95.468308-396.918154 75.992615-448.137846-3.859692-10.102154-7.995077-19.101538-12.406154-27.037538-6.360615-11.559385-12.819692-20.243692-19.062153-26.624a49.171692 49.171692 0 0 0-8.546462-7.286154c-151.335385-105.472-306.038154-108.307692-492.071385-27.864616-36.233846 15.576615-109.154462 10.929231-146.35323-8.270769-27.805538-14.316308-70.734769-45.843692-92.475077-67.150769-8.113231-2.481231-17.979077-3.052308-28.987077-2.382769-16.580923 0.984615-32.531692 4.765538-41.019077 8.11323-2.500923 9.649231-4.765538 22.567385-6.734769 38.4-4.017231 32.334769-6.557538 74.397538-7.049847 116.775385-0.492308 43.401846 1.181538 83.830154 4.785231 113.230769 1.575385 12.898462 3.485538 23.118769 5.415385 29.774769 5.435077 5.710769 18.038154 12.8 35.505231 19.003077a285.361231 285.361231 0 0 0 70.045538 14.690462c5.671385 0.492308 15.399385-3.997538 34.422154-18.156308 3.406769-2.56 4.076308-3.072 13.292308-10.141538 34.402462-26.407385 53.267692-38.084923 81.191384-44.996923 40.487385-10.043077 80.935385 0.196923 119.650462 31.113846 73.846154 58.978462 129.831385 59.372308 181.897846 12.406154l3.347692-2.756923c39.837538-29.991385 80.502154-11.126154 110.532923 25.678769 19.495385 23.886769 34.579692 56.201846 38.321231 84.125538 13.134769 98.619077 10.318769 159.724308-25.107692 222.523077-22.803692 40.428308-63.862154 72.428308-112.403693 61.44-25.954462-5.888-49.171692-24.083692-73.767384-54.370461l-72.664616 57.796923z"  horiz-adv-x="1102" />

    
    <glyph glyph-name="houtui" unicode="&#58884;" d="M717.157129-44.289277c19.694869-17.95196 21.089196-48.278573 3.137235-67.973442-17.95196-19.694869-48.278573-21.089196-67.973442-3.137236L143.565853 348.388069c-19.694869 17.95196-21.089196 48.278573-3.137236 67.973442 1.045745 1.220036 2.091491 2.265781 3.137236 3.137236l0.17429 0.174291 0.174291 0.17429 508.406488 463.613733c19.694869 17.95196 50.021482 16.383342 67.973442-3.137236 17.95196-19.694869 16.383342-50.021482-3.137235-67.973442L247.443215 383.943408l469.713914-428.232685z m0 0"  horiz-adv-x="1024" />

    
    <glyph glyph-name="wodeyuyue" unicode="&#59150;" d="M873.128527 780.438871H154.081505c-67.410658 0-118.77116-54.570533-118.77116-118.771159v-638.796239c0-67.410658 54.570533-118.77116 118.77116-118.77116h719.047022c67.410658 0 118.77116 54.570533 118.77116 118.77116V661.667712c0 67.410658-51.360502 118.77116-118.77116 118.771159zM179.761755 713.028213l658.056427 3.210032c80.250784 0 86.670846-9.630094 86.670846-86.670847v-19.260188H102.721003v19.260188c0 54.570533 0 83.460815 77.040752 83.460815z m664.47649-738.30721l-674.106584-3.210031c-32.100313 0-70.62069 25.680251-70.620689 73.830721V542.896552h818.557994l3.210031-497.554859c3.210031-51.360502-22.470219-70.62069-77.040752-70.62069zM285.69279 677.717868c-22.470219 0-32.100313 12.840125-32.100314 25.680251V844.639498c0 9.630094 9.630094 25.680251 32.100314 25.680251 16.050157 0 32.100313-12.840125 32.100313-25.680251V703.398119c0-12.840125-9.630094-25.680251-32.100313-25.680251z m439.774295 0c-16.050157 0-32.100313 12.840125-32.100314 25.680251V844.639498c0 9.630094 16.050157 25.680251 32.100314 25.680251s32.100313-12.840125 32.100313-25.680251V703.398119c0-12.840125-16.050157-25.680251-32.100313-25.680251zM491.134796 157.69279c-6.420063-6.420063-19.260188-12.840125-28.890282-3.210031-6.420063 3.210031-12.840125 12.840125-16.050157 16.050156L321.003135 295.724138c-6.420063 6.420063-16.050157 32.100313-3.210032 48.15047 16.050157 16.050157 38.520376 6.420063 44.940439 0l96.300941-83.460815s9.630094-9.630094 16.050156-12.840125c3.210031-3.210031 16.050157 0 16.050157 0 3.210031 3.210031 25.680251 22.470219 25.680251 22.470219l192.601881 186.181818c9.630094 12.840125 38.520376 9.630094 48.15047 0 6.420063-6.420063 9.630094-28.890282 3.210031-38.520376l-250.382445-240.752351-19.260188-19.260188z"  horiz-adv-x="1027" />

    
    <glyph glyph-name="xunlian_fuzhi" unicode="&#58885;" d="M172.3 554.1h-57.5v-0.1c-28.1-1.9-50.3-25.3-50.3-53.9 0-1.2 0.1-2.3 0.1-3.5v-222c-0.2-1.9-0.3-3.9-0.3-5.9 0-29.7 24-53.8 53.6-54h54.5V496.6c0.1 1.2 0.1 2.3 0.1 3.5s-0.1 2.3-0.1 3.5v50.5zM959.5 274.6v222c0.1 1.2 0.1 2.3 0.1 3.5 0 28.6-22.2 52-50.3 53.9v0.1h-57.5v-50.5c-0.1-1.2-0.1-2.3-0.1-3.5s0.1-2.3 0.1-3.5v-281.8h54.5c29.6 0.2 53.6 24.3 53.6 54-0.1 2-0.2 3.9-0.4 5.8zM834.1 607.4c-0.1 0-0.1 0 0 0-0.2 28.5-22.4 51.7-50.5 53.5v0.2l-119.3-0.5 1-229.9H356.6V660.9H240.8c-29.8 0-54-24.2-54-54v-450h0.2c2-27.9 25.3-49.9 53.7-50h116V337.4h309l1-230.9L785 107v0.1c28.4 1.6 51 25.1 51 53.9v0.4l-1.9 446zM356.6 368.20000000000005v31.7h308.8l0.1-31.7H356.6z"  horiz-adv-x="1024" />

    
    <glyph glyph-name="shaitu" unicode="&#58926;" d="M937.984 875.52H79.872C36.864 875.52 0 834.56 0 789.504v-796.672C0-52.224 36.864-87.04 79.872-87.04h864.256c45.056 0 79.872 34.816 79.872 79.872V789.504C1024 834.56 983.04 875.52 937.984 875.52zM147.456 783.36c40.96 0 73.728-32.768 73.728-73.728s-32.768-73.728-73.728-73.728-73.728 32.768-73.728 73.728 32.768 73.728 73.728 73.728zM114.688 9.216c-10.24 0-18.432 4.096-26.624 10.24-16.384 14.336-18.432 40.96-4.096 59.392l188.416 286.72c14.336 16.384 38.912 18.432 55.296 6.144l165.888-124.928L790.528 588.8c14.336 18.432 88.064 102.4 133.12 6.144v-585.728c-2.048 2.048-808.96 0-808.96 0z"  horiz-adv-x="1024" />

    
    <glyph glyph-name="wodedangxuan" unicode="&#58935;" d="M907.264-70.65599999999995H114.688c-16.384 0-32.768 8.192-43.008 20.48-10.24 14.336-14.336 30.72-10.24 47.104 40.96 208.896 210.944 364.544 415.744 380.928 68.608 0 142.848-8.704 217.088-38.912 21.504-8.704 28.672-14.336 40.96-20.48 118.784-67.584 200.704-184.32 227.328-321.536 4.096-16.384 0-32.768-12.288-47.104-10.24-12.288-26.624-20.48-43.008-20.48zM115.712-37.375999999999976c-6.656 0-12.8 2.56-16.384 7.168-0.512 0.512-0.512 1.024-1.024 1.536-5.12 5.12-5.632 13.824-4.608 18.944 37.888 194.56 197.12 340.48 387.584 354.304h15.36c91.648 0 179.712-28.672 222.72-55.808C832 221.18399999999997 907.264 115.20000000000005 930.816-9.727999999999952c1.024-7.168-0.512-13.824-5.632-20.48-3.584-4.608-9.728-7.168-16.384-7.168H115.712zM496.64 332.288c89.088 0 174.592-27.648 216.064-53.76h0.512c109.568-65.024 182.272-167.936 204.8-289.792 0.512-2.56 0.512-6.144-3.584-10.752-0.512-1.024-3.072-2.048-6.144-2.048H115.712c-3.072 0-5.632 1.024-6.144 2.048-0.512 1.024-1.536 2.048-2.56 2.56-1.024 1.024-2.048 4.096-1.024 7.68 36.864 188.928 190.976 330.24 375.808 344.064 4.608-0.512 9.728 0 14.848 0m0 25.6c-5.12 0-10.752 0-15.872-0.512C284.16 343.03999999999996 120.32 193.53599999999994 81.408-7.168000000000006c-2.048-10.24 0-22.528 8.192-30.72 6.144-8.192 16.384-12.288 26.624-12.288H908.8c10.24 0 20.48 4.096 26.624 12.288 6.144 8.192 10.24 18.432 8.192 30.72-24.576 131.072-102.4 238.592-217.088 307.2-43.52 27.136-132.608 57.856-229.888 57.856zM512 359.424c-129.024 0-235.52 106.496-235.52 235.52S382.976 830.4639999999999 512 830.4639999999999s235.52-106.496 235.52-235.52S641.024 359.424 512 359.424zM512 392.704c-111.616 0-202.24 90.624-202.24 202.24S400.384 797.184 512 797.184s202.24-90.624 202.24-202.24-90.624-202.24-202.24-202.24zM512 784.384c104.448 0 189.44-84.992 189.44-189.44S616.448 405.504 512 405.504s-189.44 84.992-189.44 189.44 84.992 189.44 189.44 189.44m0 25.6c-118.784 0-215.04-96.256-215.04-215.04s96.256-215.04 215.04-215.04 215.04 96.256 215.04 215.04S630.784 809.984 512 809.984z"  horiz-adv-x="1024" />

    
    <glyph glyph-name="weixin1-copy" unicode="&#60267;" d="M586.06933333 384c-12.85688889 0-25.82755555-12.74311111-25.82755555-25.48622222 0-12.85688889 12.97066667-25.48622222 25.82755555-25.48622223 19.456 0 32.31288889 12.62933333 32.31288889 25.48622223 0 12.74311111-12.74311111 25.48622222-32.31288889 25.48622222zM502.32888889 505.28711111c19.456 0 32.19911111 12.85688889 32.19911111 31.97155556 0 19.22844445-12.85688889 31.85777778-32.19911111 31.85777778s-38.68444445-12.62933333-38.68444444-31.85777778c0-19.11466667 19.34222222-31.97155555 38.68444444-31.97155556zM321.87733333 569.00266667c-19.34222222 0-38.79822222-12.62933333-38.79822222-31.85777778 0-19.11466667 19.456-31.97155555 38.79822222-31.97155556s32.19911111 12.85688889 32.19911112 31.97155556c0 19.22844445-12.85688889 31.85777778-32.19911112 31.85777778zM727.83644445 384c-12.74311111 0-25.6-12.74311111-25.6-25.48622222 0-12.85688889 12.85688889-25.48622222 25.6-25.48622223 19.34222222 0 32.31288889 12.62933333 32.31288888 25.48622223 0 12.74311111-12.97066667 25.48622222-32.31288888 25.48622222zM869.26222222 896H154.73777778c-85.10577778 0-154.73777778-69.632-154.73777778-154.73777778v-714.52444444c0-85.10577778 69.632-154.73777778 154.73777778-154.73777778h714.52444444c85.10577778 0 154.73777778 69.632 154.73777778 154.73777778V741.26222222c0 85.10577778-69.632 154.73777778-154.73777778 154.73777778zM405.61777778 243.59822222000003c-32.19911111 0-58.02666667 6.48533333-90.33955556 12.85688889L225.28 211.74044445000004l25.82755555 76.68622222c-64.512 44.60088889-103.08266667 102.17244445-103.08266666 172.14577778 0 121.28711111 116.05333333 216.86044445 257.70666666 216.86044444 126.74844445 0 237.68177778-76.34488889 259.98222223-179.08622222-8.192 0.91022222-16.49777778 1.47911111-24.80355556 1.47911111-122.42488889 0-219.136-90.45333333-219.136-201.84177778 0-18.54577778 2.95822222-36.40888889 7.96444445-53.47555555-7.96444445-0.56888889-16.04266667-0.91022222-24.12088889-0.91022223z m380.13155555-89.31555555l19.34222222-63.71555556-70.656 38.34311111c-25.82755555-6.37155555-51.65511111-12.74311111-77.36888888-12.74311111-122.65244445 0-219.24977778 82.944-219.24977778 185.00266667 0 101.94488889 96.59733333 185.11644445 219.24977778 185.11644444 115.82577778 0 218.90844445-83.05777778 218.90844444-185.11644444 0.11377778-57.57155555-38.45688889-108.544-90.22577778-146.88711111z"  horiz-adv-x="1024" />

    
    <glyph glyph-name="qq1-copy" unicode="&#60268;" d="M864-128H160C72-128 0-56 0 32V736C0 824 72 896 160 896h704c88 0 160-72 160-160v-704c0-88-72-160-160-160zM512 384m-512 0a512 512 0 1 1 1024 0 512 512 0 1 1-1024 0ZM512 384m-310.4 0a310.4 310.4 0 1 1 620.8 0 310.4 310.4 0 1 1-620.8 0ZM512 782.4C292.8 782.4 113.6 603.2 113.6 384S291.2-14.399999999999977 512-14.399999999999977c219.2 0 398.4 177.6 398.4 398.4C910.4 603.2 731.2 782.4 512 782.4z m219.2-523.2c-9.6-9.6-27.2 1.6-44.8 24-8-19.2-17.6-38.4-28.8-54.4 24-8 40-22.4 40-36.8 0-25.6-46.4-46.4-102.4-46.4-33.6 0-64 8-83.2 19.2-19.2-11.2-48-19.2-83.2-19.2-57.6 0-102.4 20.8-102.4 46.4 0 14.4 16 28.8 40 36.8-11.2 16-20.8 35.2-28.8 54.4-17.6-24-35.2-33.6-44.8-24-14.4 12.8-8 59.2 12.8 104 4.8 9.6 9.6 19.2 16 27.2 3.2 128 88 232 192 232s188.8-102.4 192-232c4.8-8 11.2-17.6 16-27.2 17.6-43.2 24-89.6 9.6-104z"  horiz-adv-x="1024" />

    


  </font>
</defs>
</svg>
